<?xml version="1.0" encoding="utf-8"?>
<!-- Generator: Adobe Illustrator 23.0.5, SVG Export Plug-In . SVG Version: 6.00 Build 0)  -->
<svg version="1.1" id="Layer_1" xmlns="http://www.w3.org/2000/svg" xmlns:xlink="http://www.w3.org/1999/xlink" x="0px" y="0px"
	 viewBox="0 0 500 500" style="enable-background:new 0 0 500 500;" xml:space="preserve">
<style type="text/css">
	.st0{fill:#FFFFFF;}
	.st1{fill:none;}
	.st2{clip-path:url(#SVGID_2_);}
	.st3{clip-path:url(#SVGID_4_);}
</style>
<path class="st0" d="M145.8,382.1l-2.1,13c-0.2,0.9-0.5,1.5-0.9,1.8c-0.4,0.3-1.1,0.4-2.1,0.4h-33.9c-3.7,0-7.9,0.1-12.4,0.3
	c-0.6,0-1-0.2-1.3-0.7c-0.3-0.4-0.5-1-0.5-1.6c0.1-1,0.3-1.7,0.6-1.9c0.3-0.2,1-0.3,2-0.3c2,0,3.5-0.4,4.4-1.1
	c1-0.7,1.6-1.6,1.8-2.7c0.2-1.1,0.4-2.5,0.5-4.2v-41c-0.1-1.7-0.2-3.1-0.5-4.2c-0.2-1.1-0.8-2-1.8-2.7c-1-0.7-2.4-1.1-4.4-1.1h-0.6
	c-0.7,0-1.2-0.1-1.5-0.4c-0.3-0.2-0.5-0.8-0.5-1.8c0-0.6,0.1-1.2,0.5-1.6c0.3-0.4,0.8-0.7,1.3-0.7c4.5,0.2,8.6,0.3,12.3,0.3
	c4.1,0,8.4-0.1,12.9-0.3c0.6,0,1.1,0.2,1.4,0.7c0.3,0.5,0.5,1,0.5,1.6c-0.1,1-0.3,1.6-0.7,1.9c-0.4,0.2-1,0.3-1.9,0.3
	c-2,0-3.5,0.4-4.5,1.1c-1,0.7-1.6,1.6-1.8,2.7c-0.2,1-0.4,2.5-0.5,4.2v42.6c0.1,1.4,0.3,2.6,0.5,3.4c0.2,0.8,0.8,1.5,1.8,2.2
	c1,0.7,2.7,1,4.9,0.9h9.3c2.4-0.1,4.2-0.5,5.5-1.2c1.2-0.7,2.2-1.8,2.9-3.4c0.7-1.5,1.6-4,2.6-7.4c0.5-1.3,1.7-1.7,3.5-1.5
	c0.6,0.1,1.2,0.4,1.8,0.8C145.6,381,145.9,381.5,145.8,382.1z"/>
<path class="st0" d="M160.6,272c0,0.6-0.2,1.1-0.5,1.6c-0.3,0.4-0.8,0.7-1.4,0.7c-0.8-0.1-1.8-0.1-3-0.1c-2.5-0.1-4.4-0.2-5.8-0.2
	h-6.6c-9.1-10.1-17.2-19.3-24.4-27.6c-2.2-2.5-4.4-3.9-6.7-4.1v19.6c0.1,1.7,0.2,3.1,0.5,4.2c0.2,1.1,0.8,2,1.8,2.7
	c1,0.7,2.5,1.1,4.5,1.1h0.6c0.7,0,1.2,0.1,1.4,0.4c0.3,0.2,0.5,0.8,0.5,1.8c0,0.6-0.1,1.1-0.5,1.6c-0.3,0.4-0.8,0.7-1.4,0.7
	c-4.4-0.2-8.7-0.3-12.8-0.3c-3.7,0-7.8,0.1-12.3,0.3c-0.6,0-1.1-0.2-1.4-0.7c-0.3-0.5-0.5-1-0.5-1.6c0.1-1,0.3-1.7,0.6-1.9
	c0.3-0.2,1-0.3,2-0.3c2,0,3.5-0.4,4.4-1.1c1-0.7,1.6-1.6,1.8-2.7s0.4-2.5,0.5-4.2v-41c-0.1-1.7-0.2-3.1-0.5-4.2
	c-0.2-1.1-0.8-2-1.8-2.7c-1-0.7-2.4-1.1-4.4-1.1h-0.6c-0.7,0-1.2-0.1-1.5-0.3c-0.3-0.2-0.5-0.8-0.5-1.8c0-0.6,0.1-1.1,0.5-1.6
	c0.3-0.4,0.8-0.7,1.4-0.7c4.5,0.2,8.5,0.3,12.2,0.3c4.1,0,8.4-0.1,12.9-0.3c0.6,0,1.1,0.2,1.4,0.7c0.3,0.5,0.5,1,0.5,1.6
	c-0.1,1-0.3,1.7-0.6,1.9c-0.3,0.2-1,0.3-2,0.3c-2,0-3.5,0.4-4.5,1.1c-1,0.7-1.6,1.6-1.8,2.7c-0.2,1.1-0.4,2.5-0.5,4.2v18.7
	c1.1-0.2,2.3-0.8,3.7-1.8c1.4-1,3.1-2.3,5.1-4c3.9-3.6,8.7-8.9,14.6-15.8c1.2-1.4,1.9-2.5,1.9-3.3c0-1-0.9-1.6-2.8-1.7
	c-0.5-0.1-0.8-0.3-1-0.6c-0.2-0.3-0.3-0.8-0.5-1.6c0-0.6,0.2-1.2,0.5-1.6c0.3-0.5,0.8-0.7,1.3-0.7c2.4,0.2,6.2,0.3,11.4,0.3
	c1.7,0,4.1-0.1,7.2-0.2l2.2-0.1c0.6,0,1.1,0.2,1.5,0.7c0.3,0.5,0.5,1,0.5,1.7c-0.1,1-0.3,1.6-0.6,1.8c-0.3,0.2-0.8,0.4-1.5,0.4
	c-2.8-0.1-5.3,0.3-7.8,1.3c-2.4,1-5,2.9-7.7,5.6l-16.8,17.5c2.4,3,4.9,5.8,7.4,8.5c2.6,2.7,5.6,5.8,9.2,9.4c1.8,1.8,3.9,4,6.4,6.6
	c0.8,0.8,1.3,1.3,1.5,1.7c2.2,2.2,4,3.7,5.2,4.6c1.3,0.9,2.9,1.5,4.7,1.7c0.1,0,0.4,0,0.9,0.1c0.5,0,0.9,0.2,1.2,0.6
	C160.4,270.8,160.6,271.3,160.6,272z"/>
<path class="st0" d="M199.7,373.2c0,5.2-1.2,9.7-3.7,13.5c-2.5,3.8-5.5,6.8-9.3,8.8c-3.7,2-7.5,3-11.2,3c-4.7,0-8.9-1.1-12.5-3.4
	c-3.7-2.3-6.5-5.2-8.5-8.9c-2-3.7-3-7.6-3-11.8c0-5.2,1.2-9.7,3.6-13.5c2.4-3.8,5.5-6.8,9.2-8.8c3.7-2,7.5-3.1,11.3-3.1
	c4.7,0,8.9,1.1,12.5,3.3c3.7,2.2,6.5,5.2,8.5,8.9C198.7,365.2,199.7,369.1,199.7,373.2z"/>
<path class="st0" d="M213,249.9c0,5.2-1.2,9.7-3.7,13.5c-2.5,3.8-5.5,6.8-9.3,8.8c-3.7,2-7.5,3-11.2,3c-4.7,0-8.8-1.1-12.5-3.4
	c-3.7-2.3-6.5-5.2-8.5-8.9c-2-3.7-3-7.6-3-11.8c0-5.2,1.2-9.7,3.6-13.5c2.4-3.8,5.5-6.8,9.2-8.8c3.7-2.1,7.5-3.1,11.3-3.1
	c4.7,0,8.9,1.1,12.5,3.4s6.5,5.2,8.5,8.9C212,241.8,213,245.8,213,249.9z"/>
<path class="st0" d="M258.8,260.2c0,2.8-0.8,5.4-2.5,7.7c-1.7,2.3-3.9,4.1-6.8,5.4c-2.9,1.3-6.1,1.9-9.7,1.9c-5.5,0-10-1-13.4-2.9
	c-3.4-1.9-5.2-4.7-5.2-8.2c0-2,0.6-3.6,1.8-4.9c1.2-1.2,2.8-1.9,4.7-1.9c1.1,0,2.1,0.3,3,0.9c0.9,0.6,1.3,1.1,1.3,1.4
	c0,0.1-0.4,0.5-1.2,1.3c-0.8,0.8-1.2,2-1.2,3.5c0,2.1,1,3.7,2.8,4.9c1.9,1.2,4.6,1.8,8.2,1.8c3.2,0,5.8-0.7,7.6-2.1
	c1.8-1.4,2.8-3.4,2.8-5.9c0-1.7-0.5-3.1-1.6-4.2c-1-1.1-2.3-2-3.9-2.6c-1.5-0.6-3.7-1.3-6.5-2.2c-3.4-1-6.1-1.9-8.3-2.9
	s-4-2.4-5.5-4.3s-2.3-4.4-2.3-7.5c0-2.9,0.9-5.4,2.7-7.4c1.8-2.1,4.1-3.6,7-4.6c2.9-1.1,5.9-1.6,9-1.6c4.1,0,7.6,0.9,10.6,2.6
	c3,1.7,4.5,4.1,4.5,7.2c0,1.9-0.6,3.4-1.7,4.8c-1.1,1.3-2.6,2-4.5,2c-1.1,0-2.1-0.3-2.9-0.9c-0.9-0.6-1.3-1.1-1.3-1.5
	c0-0.1,0.3-0.3,0.8-0.8c0.5-0.5,1-1.1,1.5-1.7c0.5-0.7,0.7-1.4,0.7-2.3c-0.1-1.9-1.1-3.3-2.8-4.3c-1.7-1-3.8-1.5-6.1-1.5
	c-2.6,0-4.9,0.6-6.9,1.8c-2,1.2-2.9,2.9-2.9,5c0,1.9,0.4,3.5,1.2,4.6c0.8,1.1,2.1,2.1,3.7,2.8c1.7,0.7,4.3,1.6,7.9,2.8
	c3.6,1.2,6.5,2.3,8.6,3.3s3.7,2.3,4.9,4C258.2,255.2,258.8,257.5,258.8,260.2z"/>
<path class="st0" d="M295.1,395.6c0,0.5-0.2,1-0.5,1.4c-0.3,0.4-0.7,0.6-1.2,0.6c-4-0.2-7.6-0.3-10.8-0.3c-3.1,0-6.7,0.1-10.8,0.3
	c-0.5,0-1-0.2-1.2-0.6c-0.3-0.4-0.4-0.9-0.4-1.4c0.1-0.9,0.3-1.4,0.6-1.6c0.3-0.2,0.9-0.3,1.8-0.3c1.8,0,3.1-0.3,3.8-0.9
	c0.8-0.6,1.2-1.3,1.3-2.2c0.1-0.8,0.2-2.2,0.2-3.9v-21.9c0-3.2-1-5.6-3-7.3c-2-1.7-4.3-2.5-6.9-2.5c-3.2,0-5.8,0.8-7.8,2.3
	c-2,1.5-3.4,3.1-4.2,4.9v24.6c0,0.4,0,1.3-0.1,2.8c0,1.5,0.4,2.5,1.2,3.2s2.1,1,3.9,1h0.6c0.6,0,1,0.1,1.3,0.3
	c0.2,0.2,0.4,0.7,0.5,1.6c0,0.5-0.1,1-0.4,1.4c-0.3,0.4-0.7,0.6-1.2,0.6c-4.1-0.2-7.6-0.3-10.5-0.3c-2.8,0-6.3,0.1-10.3,0.3
	c-0.6,0-1-0.2-1.3-0.6c-0.3-0.4-0.4-0.9-0.4-1.4c0.1-0.9,0.3-1.4,0.6-1.6c0.3-0.2,0.9-0.3,1.8-0.3c2.3,0,3.7-0.5,4.2-1.4
	c0.6-0.9,0.8-2,0.8-3.2c0-1.2,0-2,0-2.4v-21.9c0-3.2-1-5.6-3-7.3c-2-1.7-4.3-2.5-6.9-2.5c-3.2,0-5.8,0.8-7.8,2.3
	c-2,1.5-3.5,3.1-4.3,4.9v24.6c0,1.8,0.1,3.1,0.2,3.9c0.1,0.8,0.6,1.5,1.3,2.2c0.8,0.6,2,0.9,3.8,0.9h0.6c0.5,0,1,0.1,1.2,0.3
	c0.3,0.2,0.4,0.7,0.5,1.6c0,0.5-0.1,1-0.4,1.4c-0.3,0.4-0.7,0.6-1.2,0.6c-4-0.2-7.6-0.3-10.9-0.3c-3.1,0-6.7,0.1-10.8,0.3
	c-0.5,0-0.9-0.2-1.2-0.6c-0.3-0.4-0.5-0.9-0.5-1.4c0.1-0.9,0.3-1.4,0.6-1.6c0.3-0.2,0.9-0.3,1.8-0.3c1.8,0,3.1-0.3,3.8-0.9
	c0.8-0.6,1.2-1.3,1.3-2.2c0.1-0.8,0.2-2.2,0.2-3.9V363c0-1.8-0.1-3.1-0.2-3.9c-0.1-0.8-0.5-1.6-1.3-2.2c-0.8-0.6-2-0.9-3.8-0.9
	c-0.8,0-1.5-0.1-1.9-0.4c-0.4-0.2-0.6-0.8-0.6-1.7c0-0.4,0.1-0.8,0.4-1.2c0.3-0.4,0.7-0.6,1.3-0.7c4.5-0.7,8.2-1.6,11.1-2.7
	c1.2-0.3,2-0.5,2.4-0.6h0.3c1.1,0,1.7,0.7,1.7,2v6.5h0.3c0.4-0.4,1.4-1.4,3.1-3c1.7-1.6,3.5-2.8,5.6-3.7c2.1-0.8,4.5-1.3,7.2-1.3
	c3.3,0,6.2,0.7,8.6,2.1c2.4,1.4,4.2,3.3,5.4,5.8h0.2c2.7-2.5,5.3-4.5,7.7-5.9c2.4-1.4,5.6-2.1,9.5-2.1c4.7,0,8.4,1.4,11.2,4.3
	c2.8,2.8,4.2,6.5,4.2,11.1v22c0,1.8,0.1,3.1,0.2,3.9c0.1,0.8,0.6,1.5,1.3,2.2c0.8,0.6,2,0.9,3.8,0.9h0.6c0.5,0,1,0.1,1.2,0.3
	C294.9,394.2,295.1,394.8,295.1,395.6z"/>
<path class="st0" d="M350.3,373.5c0,4.6-1.1,8.9-3.3,12.7c-2.2,3.8-5.1,6.8-8.8,9.1c-3.7,2.2-7.5,3.3-11.7,3.3
	c-6.1,0-11.5-1.7-15.9-5.1h-0.5c-0.3,0.5-0.6,1.3-0.9,2.3c-0.3,1-0.7,1.7-1.1,2.2c-0.4,0.5-0.9,0.8-1.5,0.8c-0.6,0-1.1-0.2-1.5-0.6
	c-0.3-0.4-0.5-0.9-0.5-1.5v-60.4c0-1.8-0.1-3.1-0.2-3.9c-0.1-0.8-0.5-1.5-1.3-2.2c-0.8-0.6-2-0.9-3.8-0.9c-0.8,0-1.5-0.1-1.9-0.4
	c-0.4-0.3-0.6-0.8-0.6-1.7c0-0.4,0.1-0.8,0.4-1.2c0.3-0.4,0.7-0.6,1.2-0.7c4.3-0.6,8.1-1.5,11.2-2.7c1-0.3,1.8-0.5,2.4-0.6h0.3
	c1.1,0,1.7,0.7,1.7,2v31.2h0.3c2-2,4.3-3.5,6.8-4.5s5-1.5,7.5-1.5c4.1,0,7.8,1,11.1,3.1c3.3,2.1,5.9,5,7.8,8.7
	C349.4,364.7,350.3,368.9,350.3,373.5z"/>
<path class="st0" d="M407,373.2c0,5.2-1.2,9.7-3.7,13.5c-2.4,3.8-5.5,6.8-9.3,8.8c-3.7,2-7.4,3-11.2,3c-4.7,0-8.9-1.1-12.5-3.4
	c-3.7-2.3-6.5-5.2-8.5-8.9c-2-3.7-3-7.6-3-11.8c0-5.2,1.2-9.7,3.6-13.5c2.4-3.8,5.5-6.8,9.2-8.8c3.7-2,7.5-3.1,11.3-3.1
	c4.7,0,8.9,1.1,12.5,3.3c3.6,2.2,6.5,5.2,8.5,8.9C406,365.2,407,369.1,407,373.2z"/>
<path class="st0" d="M470,395.6c0,1.4-0.5,2.1-1.7,2.1c-0.6,0-1.7-0.1-3.1-0.2c-1.4-0.1-5-0.1-10.6-0.1c-2.1-2.1-6.9-7.6-14.4-16.3
	c-2.1-2.5-3.3-3.8-3.3-3.9c-2-2.1-4-3.1-6.1-2.9v12.5c0,1.8,0,3.1,0.1,3.9c0.1,0.8,0.5,1.5,1.3,2.2c0.8,0.6,2,0.9,3.8,0.9h0.6
	c0.6,0,1.1,0.1,1.4,0.3c0.3,0.2,0.4,0.7,0.5,1.6c0,0.5-0.2,1-0.5,1.4c-0.3,0.4-0.7,0.6-1.2,0.6c-4-0.2-7.6-0.3-10.8-0.3
	c-3.1,0-6.7,0.1-10.8,0.3c-0.6,0-1-0.2-1.3-0.6c-0.3-0.4-0.4-0.9-0.4-1.4c0.1-0.9,0.3-1.4,0.6-1.6c0.3-0.2,0.9-0.3,1.8-0.3
	c1.8,0,3.1-0.3,3.8-0.9c0.8-0.6,1.2-1.3,1.3-2.2c0.1-0.8,0.2-2.2,0.2-3.9v-50.4c0-1.8,0-3.1-0.2-3.9c-0.1-0.8-0.5-1.5-1.3-2.2
	c-0.8-0.6-2-0.9-3.8-0.9c-0.8,0-1.4-0.1-1.9-0.4c-0.4-0.3-0.6-0.8-0.6-1.7c0-0.4,0.1-0.8,0.4-1.2c0.3-0.4,0.7-0.6,1.3-0.7
	c4.3-0.6,8-1.5,11.2-2.7c1-0.3,1.8-0.5,2.4-0.6h0.3c1.1,0,1.7,0.7,1.7,2v47.3c3-0.6,5.5-1.9,7.5-3.8l8.7-8.9
	c0.1-0.2,0.5-0.6,1.2-1.4c0.7-0.7,1-1.3,1-1.8c0-1-1.6-1.5-4.8-1.3c-0.8-0.1-1.2-0.8-1.2-1.8c0-0.6,0.2-1,0.5-1.5
	c0.3-0.4,0.7-0.6,1.2-0.6c3.1,0.2,6.9,0.3,11.4,0.3c1,0,2.5-0.1,4.6-0.2l2.4-0.1c0.5,0,0.9,0.2,1.2,0.6c0.3,0.4,0.5,0.9,0.5,1.5
	c-0.1,0.8-0.3,1.3-0.5,1.5c-0.3,0.2-0.7,0.3-1.2,0.3c-2.6,0-4.7,0.5-6.3,1.4c-1.7,0.9-3.6,2.5-5.8,4.8l-8.7,8.9
	c1.8,2.4,5.6,6.8,11.4,13.2c2.6,2.9,4,4.4,4,4.6c2.5,2.6,4.3,4.4,5.5,5.3c1.2,0.9,2.7,1.4,4.5,1.5c0.1,0,0.4,0,0.9,0.1
	c0.5,0,0.8,0.2,1,0.4C469.9,394.5,470,395,470,395.6z"/>
<path class="st1" d="M-50-50v600h600V-50H-50z M223,259.3c1.2-1.2,2.8-1.9,4.7-1.9c1.1,0,2.1,0.3,3,0.9c0.9,0.6,1.3,1.1,1.3,1.4
	c0,0.1-0.4,0.5-1.2,1.3c-0.8,0.8-1.2,2-1.2,3.5c0,2.1,1,3.7,2.8,4.9c1.9,1.2,4.6,1.8,8.2,1.8c3.2,0,5.8-0.7,7.6-2.1
	c1.8-1.4,2.8-3.4,2.8-5.9c0-1.7-0.5-3.1-1.6-4.2c-1-1.1-2.3-2-3.9-2.6c-1.5-0.6-3.7-1.3-6.5-2.2c-3.4-1-6.1-1.9-8.3-2.9
	s-4-2.4-5.5-4.3s-2.3-4.4-2.3-7.5c0-2.9,0.9-5.4,2.7-7.4c1.8-2.1,4.1-3.6,7-4.6c2.9-1.1,5.9-1.6,9-1.6c4.1,0,7.6,0.9,10.6,2.6
	c3,1.7,4.5,4.1,4.5,7.2c0,1.9-0.6,3.4-1.7,4.8c-1.1,1.3-2.6,2-4.5,2c-1.1,0-2.1-0.3-2.9-0.9c-0.9-0.6-1.3-1.1-1.3-1.5
	c0-0.1,0.3-0.3,0.8-0.8c0.5-0.5,1-1.1,1.5-1.7c0.5-0.7,0.7-1.4,0.7-2.3c-0.1-1.9-1.1-3.3-2.8-4.3c-1.7-1-3.8-1.5-6.1-1.5
	c-2.6,0-4.9,0.6-6.9,1.8c-2,1.2-2.9,2.9-2.9,5c0,1.9,0.4,3.5,1.2,4.6c0.8,1.1,2.1,2.1,3.7,2.8c1.7,0.7,4.3,1.6,7.9,2.8
	c3.6,1.2,6.5,2.3,8.6,3.3s3.7,2.3,4.9,4c1.2,1.7,1.8,3.9,1.8,6.7c0,2.8-0.8,5.4-2.5,7.7c-1.7,2.3-3.9,4.1-6.8,5.4
	c-2.9,1.3-6.1,1.9-9.7,1.9c-5.5,0-10-1-13.4-2.9c-3.4-1.9-5.2-4.7-5.2-8.2C221.2,262.1,221.8,260.5,223,259.3z M143.7,395.2
	c-0.2,0.9-0.5,1.5-0.9,1.8c-0.4,0.3-1.1,0.4-2.1,0.4h-33.9c-3.7,0-7.9,0.1-12.4,0.3c-0.6,0-1-0.2-1.3-0.7c-0.3-0.4-0.5-1-0.5-1.6
	c0.1-1,0.3-1.7,0.6-1.9c0.3-0.2,1-0.3,2-0.3c2,0,3.5-0.4,4.4-1.1c1-0.7,1.6-1.6,1.8-2.7c0.2-1.1,0.4-2.5,0.5-4.2v-41
	c-0.1-1.7-0.2-3.1-0.5-4.2c-0.2-1.1-0.8-2-1.8-2.7c-1-0.7-2.4-1.1-4.4-1.1h-0.6c-0.7,0-1.2-0.1-1.5-0.4c-0.3-0.2-0.5-0.8-0.5-1.8
	c0-0.6,0.1-1.2,0.5-1.6c0.3-0.4,0.8-0.7,1.3-0.7c4.5,0.2,8.6,0.3,12.3,0.3c4.1,0,8.4-0.1,12.9-0.3c0.6,0,1.1,0.2,1.4,0.7
	c0.3,0.5,0.5,1,0.5,1.6c-0.1,1-0.3,1.6-0.7,1.9c-0.4,0.2-1,0.3-1.9,0.3c-2,0-3.5,0.4-4.5,1.1c-1,0.7-1.6,1.6-1.8,2.7
	c-0.2,1-0.4,2.5-0.5,4.2v42.6c0.1,1.4,0.3,2.6,0.5,3.4c0.2,0.8,0.8,1.5,1.8,2.2c1,0.7,2.7,1,4.9,0.9h9.3c2.4-0.1,4.2-0.5,5.5-1.2
	c1.2-0.7,2.2-1.8,2.9-3.4c0.7-1.5,1.6-4,2.6-7.4c0.5-1.3,1.7-1.7,3.5-1.5c0.6,0.1,1.2,0.4,1.8,0.8c0.6,0.4,0.8,0.9,0.7,1.5
	L143.7,395.2z M143.3,274c-9.1-10.1-17.2-19.3-24.4-27.6c-2.2-2.5-4.4-3.9-6.7-4.1v19.6c0.1,1.7,0.2,3.1,0.5,4.2
	c0.2,1.1,0.8,2,1.8,2.7c1,0.7,2.5,1.1,4.5,1.1h0.6c0.7,0,1.2,0.1,1.4,0.4c0.3,0.2,0.5,0.8,0.5,1.8c0,0.6-0.1,1.1-0.5,1.6
	c-0.3,0.4-0.8,0.7-1.4,0.7c-4.4-0.2-8.7-0.3-12.8-0.3c-3.7,0-7.8,0.1-12.3,0.3c-0.6,0-1.1-0.2-1.4-0.7c-0.3-0.5-0.5-1-0.5-1.6
	c0.1-1,0.3-1.7,0.6-1.9c0.3-0.2,1-0.3,2-0.3c2,0,3.5-0.4,4.4-1.1c1-0.7,1.6-1.6,1.8-2.7s0.4-2.5,0.5-4.2v-41
	c-0.1-1.7-0.2-3.1-0.5-4.2c-0.2-1.1-0.8-2-1.8-2.7c-1-0.7-2.4-1.1-4.4-1.1h-0.6c-0.7,0-1.2-0.1-1.5-0.3c-0.3-0.2-0.5-0.8-0.5-1.8
	c0-0.6,0.1-1.1,0.5-1.6c0.3-0.4,0.8-0.7,1.4-0.7c4.5,0.2,8.5,0.3,12.2,0.3c4.1,0,8.4-0.1,12.9-0.3c0.6,0,1.1,0.2,1.4,0.7
	c0.3,0.5,0.5,1,0.5,1.6c-0.1,1-0.3,1.7-0.6,1.9c-0.3,0.2-1,0.3-2,0.3c-2,0-3.5,0.4-4.5,1.1c-1,0.7-1.6,1.6-1.8,2.7
	c-0.2,1.1-0.4,2.5-0.5,4.2v18.7c1.1-0.2,2.3-0.8,3.7-1.8c1.4-1,3.1-2.3,5.1-4c3.9-3.6,8.7-8.9,14.6-15.8c1.2-1.4,1.9-2.5,1.9-3.3
	c0-1-0.9-1.6-2.8-1.7c-0.5-0.1-0.8-0.3-1-0.6c-0.2-0.3-0.3-0.8-0.5-1.6c0-0.6,0.2-1.2,0.5-1.6c0.3-0.5,0.8-0.7,1.3-0.7
	c2.4,0.2,6.2,0.3,11.4,0.3c1.7,0,4.1-0.1,7.2-0.2l2.2-0.1c0.6,0,1.1,0.2,1.5,0.7c0.3,0.5,0.5,1,0.5,1.7c-0.1,1-0.3,1.6-0.6,1.8
	c-0.3,0.2-0.8,0.4-1.5,0.4c-2.8-0.1-5.3,0.3-7.8,1.3c-2.4,1-5,2.9-7.7,5.6l-16.8,17.5c2.4,3,4.9,5.8,7.4,8.5
	c2.6,2.7,5.6,5.8,9.2,9.4c1.8,1.8,3.9,4,6.4,6.6c0.8,0.8,1.3,1.3,1.5,1.7c2.2,2.2,4,3.7,5.2,4.6c1.3,0.9,2.9,1.5,4.7,1.7
	c0.1,0,0.4,0,0.9,0.1c0.5,0,0.9,0.2,1.2,0.6c0.3,0.3,0.5,0.9,0.5,1.6c0,0.6-0.2,1.1-0.5,1.6c-0.3,0.4-0.8,0.7-1.4,0.7
	c-0.8-0.1-1.8-0.1-3-0.1c-2.5-0.1-4.4-0.2-5.8-0.2H143.3z M196,386.8c-2.5,3.8-5.5,6.8-9.3,8.8c-3.7,2-7.5,3-11.2,3
	c-4.7,0-8.9-1.1-12.5-3.4c-3.7-2.3-6.5-5.2-8.5-8.9c-2-3.7-3-7.6-3-11.8c0-5.2,1.2-9.7,3.6-13.5c2.4-3.8,5.5-6.8,9.2-8.8
	c3.7-2,7.5-3.1,11.3-3.1c4.7,0,8.9,1.1,12.5,3.3c3.7,2.2,6.5,5.2,8.5,8.9c2,3.7,3.1,7.6,3.1,11.7C199.7,378.4,198.5,382.9,196,386.8
	z M200.1,272.2c-3.7,2-7.5,3-11.2,3c-4.7,0-8.8-1.1-12.5-3.4c-3.7-2.3-6.5-5.2-8.5-8.9c-2-3.7-3-7.6-3-11.8c0-5.2,1.2-9.7,3.6-13.5
	c2.4-3.8,5.5-6.8,9.2-8.8c3.7-2.1,7.5-3.1,11.3-3.1c4.7,0,8.9,1.1,12.5,3.4s6.5,5.2,8.5,8.9c2,3.7,3.1,7.6,3.1,11.7
	c0,5.2-1.2,9.7-3.7,13.5C206.9,267.2,203.8,270.1,200.1,272.2z M294.7,397c-0.3,0.4-0.7,0.6-1.2,0.6c-4-0.2-7.6-0.3-10.8-0.3
	c-3.1,0-6.7,0.1-10.8,0.3c-0.5,0-1-0.2-1.2-0.6c-0.3-0.4-0.4-0.9-0.4-1.4c0.1-0.9,0.3-1.4,0.6-1.6c0.3-0.2,0.9-0.3,1.8-0.3
	c1.8,0,3.1-0.3,3.8-0.9c0.8-0.6,1.2-1.3,1.3-2.2c0.1-0.8,0.2-2.2,0.2-3.9v-21.9c0-3.2-1-5.6-3-7.3c-2-1.7-4.3-2.5-6.9-2.5
	c-3.2,0-5.8,0.8-7.8,2.3c-2,1.5-3.4,3.1-4.2,4.9v24.6c0,0.4,0,1.3-0.1,2.8c0,1.5,0.4,2.5,1.2,3.2s2.1,1,3.9,1h0.6
	c0.6,0,1,0.1,1.3,0.3c0.2,0.2,0.4,0.7,0.5,1.6c0,0.5-0.1,1-0.4,1.4c-0.3,0.4-0.7,0.6-1.2,0.6c-4.1-0.2-7.6-0.3-10.5-0.3
	c-2.8,0-6.3,0.1-10.3,0.3c-0.6,0-1-0.2-1.3-0.6c-0.3-0.4-0.4-0.9-0.4-1.4c0.1-0.9,0.3-1.4,0.6-1.6c0.3-0.2,0.9-0.3,1.8-0.3
	c2.3,0,3.7-0.5,4.2-1.4c0.6-0.9,0.8-2,0.8-3.2c0-1.2,0-2,0-2.4v-21.9c0-3.2-1-5.6-3-7.3c-2-1.7-4.3-2.5-6.9-2.5
	c-3.2,0-5.8,0.8-7.8,2.3c-2,1.5-3.5,3.1-4.3,4.9v24.6c0,1.8,0.1,3.1,0.2,3.9c0.1,0.8,0.6,1.5,1.3,2.2c0.8,0.6,2,0.9,3.8,0.9h0.6
	c0.5,0,1,0.1,1.2,0.3c0.3,0.2,0.4,0.7,0.5,1.6c0,0.5-0.1,1-0.4,1.4c-0.3,0.4-0.7,0.6-1.2,0.6c-4-0.2-7.6-0.3-10.9-0.3
	c-3.1,0-6.7,0.1-10.8,0.3c-0.5,0-0.9-0.2-1.2-0.6c-0.3-0.4-0.5-0.9-0.5-1.4c0.1-0.9,0.3-1.4,0.6-1.6c0.3-0.2,0.9-0.3,1.8-0.3
	c1.8,0,3.1-0.3,3.8-0.9c0.8-0.6,1.2-1.3,1.3-2.2c0.1-0.8,0.2-2.2,0.2-3.9V363c0-1.8-0.1-3.1-0.2-3.9c-0.1-0.8-0.5-1.6-1.3-2.2
	c-0.8-0.6-2-0.9-3.8-0.9c-0.8,0-1.5-0.1-1.9-0.4c-0.4-0.2-0.6-0.8-0.6-1.7c0-0.4,0.1-0.8,0.4-1.2c0.3-0.4,0.7-0.6,1.3-0.7
	c4.5-0.7,8.2-1.6,11.1-2.7c1.2-0.3,2-0.5,2.4-0.6h0.3c1.1,0,1.7,0.7,1.7,2v6.5h0.3c0.4-0.4,1.4-1.4,3.1-3c1.7-1.6,3.5-2.8,5.6-3.7
	c2.1-0.8,4.5-1.3,7.2-1.3c3.3,0,6.2,0.7,8.6,2.1c2.4,1.4,4.2,3.3,5.4,5.8h0.2c2.7-2.5,5.3-4.5,7.7-5.9c2.4-1.4,5.6-2.1,9.5-2.1
	c4.7,0,8.4,1.4,11.2,4.3c2.8,2.8,4.2,6.5,4.2,11.1v22c0,1.8,0.1,3.1,0.2,3.9c0.1,0.8,0.6,1.5,1.3,2.2c0.8,0.6,2,0.9,3.8,0.9h0.6
	c0.5,0,1,0.1,1.2,0.3c0.3,0.2,0.5,0.7,0.5,1.6C295.1,396.1,295,396.6,294.7,397z M347.1,386.2c-2.2,3.8-5.1,6.8-8.8,9.1
	c-3.7,2.2-7.5,3.3-11.7,3.3c-6.1,0-11.5-1.7-15.9-5.1h-0.5c-0.3,0.5-0.6,1.3-0.9,2.3c-0.3,1-0.7,1.7-1.1,2.2
	c-0.4,0.5-0.9,0.8-1.5,0.8c-0.6,0-1.1-0.2-1.5-0.6c-0.3-0.4-0.5-0.9-0.5-1.5v-60.4c0-1.8-0.1-3.1-0.2-3.9c-0.1-0.8-0.5-1.5-1.3-2.2
	c-0.8-0.6-2-0.9-3.8-0.9c-0.8,0-1.5-0.1-1.9-0.4c-0.4-0.3-0.6-0.8-0.6-1.7c0-0.4,0.1-0.8,0.4-1.2c0.3-0.4,0.7-0.6,1.2-0.7
	c4.3-0.6,8.1-1.5,11.2-2.7c1-0.3,1.8-0.5,2.4-0.6h0.3c1.1,0,1.7,0.7,1.7,2v31.2h0.3c2-2,4.3-3.5,6.8-4.5s5-1.5,7.5-1.5
	c4.1,0,7.8,1,11.1,3.1c3.3,2.1,5.9,5,7.8,8.7c1.9,3.7,2.8,7.9,2.8,12.5C350.3,378.2,349.3,382.4,347.1,386.2z M403.3,386.8
	c-2.4,3.8-5.5,6.8-9.3,8.8c-3.7,2-7.4,3-11.2,3c-4.7,0-8.9-1.1-12.5-3.4c-3.7-2.3-6.5-5.2-8.5-8.9c-2-3.7-3-7.6-3-11.8
	c0-5.2,1.2-9.7,3.6-13.5c2.4-3.8,5.5-6.8,9.2-8.8c3.7-2,7.5-3.1,11.3-3.1c4.7,0,8.9,1.1,12.5,3.3c3.6,2.2,6.5,5.2,8.5,8.9
	c2,3.7,3.1,7.6,3.1,11.7C407,378.4,405.8,382.9,403.3,386.8z M468.3,397.6c-0.6,0-1.7-0.1-3.1-0.2c-1.4-0.1-5-0.1-10.6-0.1
	c-2.1-2.1-6.9-7.6-14.4-16.3c-2.1-2.5-3.3-3.8-3.3-3.9c-2-2.1-4-3.1-6.1-2.9v12.5c0,1.8,0,3.1,0.1,3.9c0.1,0.8,0.5,1.5,1.3,2.2
	c0.8,0.6,2,0.9,3.8,0.9h0.6c0.6,0,1.1,0.1,1.4,0.3c0.3,0.2,0.4,0.7,0.5,1.6c0,0.5-0.2,1-0.5,1.4c-0.3,0.4-0.7,0.6-1.2,0.6
	c-4-0.2-7.6-0.3-10.8-0.3c-3.1,0-6.7,0.1-10.8,0.3c-0.6,0-1-0.2-1.3-0.6c-0.3-0.4-0.4-0.9-0.4-1.4c0.1-0.9,0.3-1.4,0.6-1.6
	c0.3-0.2,0.9-0.3,1.8-0.3c1.8,0,3.1-0.3,3.8-0.9c0.8-0.6,1.2-1.3,1.3-2.2c0.1-0.8,0.2-2.2,0.2-3.9v-50.4c0-1.8,0-3.1-0.2-3.9
	c-0.1-0.8-0.5-1.5-1.3-2.2c-0.8-0.6-2-0.9-3.8-0.9c-0.8,0-1.4-0.1-1.9-0.4c-0.4-0.3-0.6-0.8-0.6-1.7c0-0.4,0.1-0.8,0.4-1.2
	c0.3-0.4,0.7-0.6,1.3-0.7c4.3-0.6,8-1.5,11.2-2.7c1-0.3,1.8-0.5,2.4-0.6h0.3c1.1,0,1.7,0.7,1.7,2v47.3c3-0.6,5.5-1.9,7.5-3.8
	l8.7-8.9c0.1-0.2,0.5-0.6,1.2-1.4c0.7-0.7,1-1.3,1-1.8c0-1-1.6-1.5-4.8-1.3c-0.8-0.1-1.2-0.8-1.2-1.8c0-0.6,0.2-1,0.5-1.5
	c0.3-0.4,0.7-0.6,1.2-0.6c3.1,0.2,6.9,0.3,11.4,0.3c1,0,2.5-0.1,4.6-0.2l2.4-0.1c0.5,0,0.9,0.2,1.2,0.6c0.3,0.4,0.5,0.9,0.5,1.5
	c-0.1,0.8-0.3,1.3-0.5,1.5c-0.3,0.2-0.7,0.3-1.2,0.3c-2.6,0-4.7,0.5-6.3,1.4c-1.7,0.9-3.6,2.5-5.8,4.8l-8.7,8.9
	c1.8,2.4,5.6,6.8,11.4,13.2c2.6,2.9,4,4.4,4,4.6c2.5,2.6,4.3,4.4,5.5,5.3c1.2,0.9,2.7,1.4,4.5,1.5c0.1,0,0.4,0,0.9,0.1
	c0.5,0,0.8,0.2,1,0.4c0.3,0.3,0.4,0.7,0.4,1.4C470,397,469.5,397.6,468.3,397.6z"/>
<path class="st0" d="M145.8,382.1l-2.1,13c-0.2,0.9-0.5,1.5-0.9,1.8c-0.4,0.3-1.1,0.4-2.1,0.4h-33.9c-3.7,0-7.9,0.1-12.4,0.3
	c-0.6,0-1-0.2-1.3-0.7c-0.3-0.4-0.5-1-0.5-1.6c0.1-1,0.3-1.7,0.6-1.9c0.3-0.2,1-0.3,2-0.3c2,0,3.5-0.4,4.4-1.1
	c1-0.7,1.6-1.6,1.8-2.7c0.2-1.1,0.4-2.5,0.5-4.2v-41c-0.1-1.7-0.2-3.1-0.5-4.2c-0.2-1.1-0.8-2-1.8-2.7c-1-0.7-2.4-1.1-4.4-1.1h-0.6
	c-0.7,0-1.2-0.1-1.5-0.4c-0.3-0.2-0.5-0.8-0.5-1.8c0-0.6,0.1-1.2,0.5-1.6c0.3-0.4,0.8-0.7,1.3-0.7c4.5,0.2,8.6,0.3,12.3,0.3
	c4.1,0,8.4-0.1,12.9-0.3c0.6,0,1.1,0.2,1.4,0.7c0.3,0.5,0.5,1,0.5,1.6c-0.1,1-0.3,1.6-0.7,1.9c-0.4,0.2-1,0.3-1.9,0.3
	c-2,0-3.5,0.4-4.5,1.1c-1,0.7-1.6,1.6-1.8,2.7c-0.2,1-0.4,2.5-0.5,4.2v42.6c0.1,1.4,0.3,2.6,0.5,3.4c0.2,0.8,0.8,1.5,1.8,2.2
	c1,0.7,2.7,1,4.9,0.9h9.3c2.4-0.1,4.2-0.5,5.5-1.2c1.2-0.7,2.2-1.8,2.9-3.4c0.7-1.5,1.6-4,2.6-7.4c0.5-1.3,1.7-1.7,3.5-1.5
	c0.6,0.1,1.2,0.4,1.8,0.8C145.6,381,145.9,381.5,145.8,382.1z"/>
<path class="st0" d="M160.6,272c0,0.6-0.2,1.1-0.5,1.6c-0.3,0.4-0.8,0.7-1.4,0.7c-0.8-0.1-1.8-0.1-3-0.1c-2.5-0.1-4.4-0.2-5.8-0.2
	h-6.6c-9.1-10.1-17.2-19.3-24.4-27.6c-2.2-2.5-4.4-3.9-6.7-4.1v19.6c0.1,1.7,0.2,3.1,0.5,4.2c0.2,1.1,0.8,2,1.8,2.7
	c1,0.7,2.5,1.1,4.5,1.1h0.6c0.7,0,1.2,0.1,1.4,0.4c0.3,0.2,0.5,0.8,0.5,1.8c0,0.6-0.1,1.1-0.5,1.6c-0.3,0.4-0.8,0.7-1.4,0.7
	c-4.4-0.2-8.7-0.3-12.8-0.3c-3.7,0-7.8,0.1-12.3,0.3c-0.6,0-1.1-0.2-1.4-0.7c-0.3-0.5-0.5-1-0.5-1.6c0.1-1,0.3-1.7,0.6-1.9
	c0.3-0.2,1-0.3,2-0.3c2,0,3.5-0.4,4.4-1.1c1-0.7,1.6-1.6,1.8-2.7s0.4-2.5,0.5-4.2v-41c-0.1-1.7-0.2-3.1-0.5-4.2
	c-0.2-1.1-0.8-2-1.8-2.7c-1-0.7-2.4-1.1-4.4-1.1h-0.6c-0.7,0-1.2-0.1-1.5-0.3c-0.3-0.2-0.5-0.8-0.5-1.8c0-0.6,0.1-1.1,0.5-1.6
	c0.3-0.4,0.8-0.7,1.4-0.7c4.5,0.2,8.5,0.3,12.2,0.3c4.1,0,8.4-0.1,12.9-0.3c0.6,0,1.1,0.2,1.4,0.7c0.3,0.5,0.5,1,0.5,1.6
	c-0.1,1-0.3,1.7-0.6,1.9c-0.3,0.2-1,0.3-2,0.3c-2,0-3.5,0.4-4.5,1.1c-1,0.7-1.6,1.6-1.8,2.7c-0.2,1.1-0.4,2.5-0.5,4.2v18.7
	c1.1-0.2,2.3-0.8,3.7-1.8c1.4-1,3.1-2.3,5.1-4c3.9-3.6,8.7-8.9,14.6-15.8c1.2-1.4,1.9-2.5,1.9-3.3c0-1-0.9-1.6-2.8-1.7
	c-0.5-0.1-0.8-0.3-1-0.6c-0.2-0.3-0.3-0.8-0.5-1.6c0-0.6,0.2-1.2,0.5-1.6c0.3-0.5,0.8-0.7,1.3-0.7c2.4,0.2,6.2,0.3,11.4,0.3
	c1.7,0,4.1-0.1,7.2-0.2l2.2-0.1c0.6,0,1.1,0.2,1.5,0.7c0.3,0.5,0.5,1,0.5,1.7c-0.1,1-0.3,1.6-0.6,1.8c-0.3,0.2-0.8,0.4-1.5,0.4
	c-2.8-0.1-5.3,0.3-7.8,1.3c-2.4,1-5,2.9-7.7,5.6l-16.8,17.5c2.4,3,4.9,5.8,7.4,8.5c2.6,2.7,5.6,5.8,9.2,9.4c1.8,1.8,3.9,4,6.4,6.6
	c0.8,0.8,1.3,1.3,1.5,1.7c2.2,2.2,4,3.7,5.2,4.6c1.3,0.9,2.9,1.5,4.7,1.7c0.1,0,0.4,0,0.9,0.1c0.5,0,0.9,0.2,1.2,0.6
	C160.4,270.8,160.6,271.3,160.6,272z"/>
<path class="st0" d="M199.7,373.2c0,5.2-1.2,9.7-3.7,13.5c-2.5,3.8-5.5,6.8-9.3,8.8c-3.7,2-7.5,3-11.2,3c-4.7,0-8.9-1.1-12.5-3.4
	c-3.7-2.3-6.5-5.2-8.5-8.9c-2-3.7-3-7.6-3-11.8c0-5.2,1.2-9.7,3.6-13.5c2.4-3.8,5.5-6.8,9.2-8.8c3.7-2,7.5-3.1,11.3-3.1
	c4.7,0,8.9,1.1,12.5,3.3c3.7,2.2,6.5,5.2,8.5,8.9C198.7,365.2,199.7,369.1,199.7,373.2z"/>
<path class="st0" d="M213,249.9c0,5.2-1.2,9.7-3.7,13.5c-2.5,3.8-5.5,6.8-9.3,8.8c-3.7,2-7.5,3-11.2,3c-4.7,0-8.8-1.1-12.5-3.4
	c-3.7-2.3-6.5-5.2-8.5-8.9c-2-3.7-3-7.6-3-11.8c0-5.2,1.2-9.7,3.6-13.5c2.4-3.8,5.5-6.8,9.2-8.8c3.7-2.1,7.5-3.1,11.3-3.1
	c4.7,0,8.9,1.1,12.5,3.4s6.5,5.2,8.5,8.9C212,241.8,213,245.8,213,249.9z"/>
<path class="st0" d="M258.8,260.2c0,2.8-0.8,5.4-2.5,7.7c-1.7,2.3-3.9,4.1-6.8,5.4c-2.9,1.3-6.1,1.9-9.7,1.9c-5.5,0-10-1-13.4-2.9
	c-3.4-1.9-5.2-4.7-5.2-8.2c0-2,0.6-3.6,1.8-4.9c1.2-1.2,2.8-1.9,4.7-1.9c1.1,0,2.1,0.3,3,0.9c0.9,0.6,1.3,1.1,1.3,1.4
	c0,0.1-0.4,0.5-1.2,1.3c-0.8,0.8-1.2,2-1.2,3.5c0,2.1,1,3.7,2.8,4.9c1.9,1.2,4.6,1.8,8.2,1.8c3.2,0,5.8-0.7,7.6-2.1
	c1.8-1.4,2.8-3.4,2.8-5.9c0-1.7-0.5-3.1-1.6-4.2c-1-1.1-2.3-2-3.9-2.6c-1.5-0.6-3.7-1.3-6.5-2.2c-3.4-1-6.1-1.9-8.3-2.9
	s-4-2.4-5.5-4.3s-2.3-4.4-2.3-7.5c0-2.9,0.9-5.4,2.7-7.4c1.8-2.1,4.1-3.6,7-4.6c2.9-1.1,5.9-1.6,9-1.6c4.1,0,7.6,0.9,10.6,2.6
	c3,1.7,4.5,4.1,4.5,7.2c0,1.9-0.6,3.4-1.7,4.8c-1.1,1.3-2.6,2-4.5,2c-1.1,0-2.1-0.3-2.9-0.9c-0.9-0.6-1.3-1.1-1.3-1.5
	c0-0.1,0.3-0.3,0.8-0.8c0.5-0.5,1-1.1,1.5-1.7c0.5-0.7,0.7-1.4,0.7-2.3c-0.1-1.9-1.1-3.3-2.8-4.3c-1.7-1-3.8-1.5-6.1-1.5
	c-2.6,0-4.9,0.6-6.9,1.8c-2,1.2-2.9,2.9-2.9,5c0,1.9,0.4,3.5,1.2,4.6c0.8,1.1,2.1,2.1,3.7,2.8c1.7,0.7,4.3,1.6,7.9,2.8
	c3.6,1.2,6.5,2.3,8.6,3.3s3.7,2.3,4.9,4C258.2,255.2,258.8,257.5,258.8,260.2z"/>
<path class="st0" d="M295.1,395.6c0,0.5-0.2,1-0.5,1.4c-0.3,0.4-0.7,0.6-1.2,0.6c-4-0.2-7.6-0.3-10.8-0.3c-3.1,0-6.7,0.1-10.8,0.3
	c-0.5,0-1-0.2-1.2-0.6c-0.3-0.4-0.4-0.9-0.4-1.4c0.1-0.9,0.3-1.4,0.6-1.6c0.3-0.2,0.9-0.3,1.8-0.3c1.8,0,3.1-0.3,3.8-0.9
	c0.8-0.6,1.2-1.3,1.3-2.2c0.1-0.8,0.2-2.2,0.2-3.9v-21.9c0-3.2-1-5.6-3-7.3c-2-1.7-4.3-2.5-6.9-2.5c-3.2,0-5.8,0.8-7.8,2.3
	c-2,1.5-3.4,3.1-4.2,4.9v24.6c0,0.4,0,1.3-0.1,2.8c0,1.5,0.4,2.5,1.2,3.2s2.1,1,3.9,1h0.6c0.6,0,1,0.1,1.3,0.3
	c0.2,0.2,0.4,0.7,0.5,1.6c0,0.5-0.1,1-0.4,1.4c-0.3,0.4-0.7,0.6-1.2,0.6c-4.1-0.2-7.6-0.3-10.5-0.3c-2.8,0-6.3,0.1-10.3,0.3
	c-0.6,0-1-0.2-1.3-0.6c-0.3-0.4-0.4-0.9-0.4-1.4c0.1-0.9,0.3-1.4,0.6-1.6c0.3-0.2,0.9-0.3,1.8-0.3c2.3,0,3.7-0.5,4.2-1.4
	c0.6-0.9,0.8-2,0.8-3.2c0-1.2,0-2,0-2.4v-21.9c0-3.2-1-5.6-3-7.3c-2-1.7-4.3-2.5-6.9-2.5c-3.2,0-5.8,0.8-7.8,2.3
	c-2,1.5-3.5,3.1-4.3,4.9v24.6c0,1.8,0.1,3.1,0.2,3.9c0.1,0.8,0.6,1.5,1.3,2.2c0.8,0.6,2,0.9,3.8,0.9h0.6c0.5,0,1,0.1,1.2,0.3
	c0.3,0.2,0.4,0.7,0.5,1.6c0,0.5-0.1,1-0.4,1.4c-0.3,0.4-0.7,0.6-1.2,0.6c-4-0.2-7.6-0.3-10.9-0.3c-3.1,0-6.7,0.1-10.8,0.3
	c-0.5,0-0.9-0.2-1.2-0.6c-0.3-0.4-0.5-0.9-0.5-1.4c0.1-0.9,0.3-1.4,0.6-1.6c0.3-0.2,0.9-0.3,1.8-0.3c1.8,0,3.1-0.3,3.8-0.9
	c0.8-0.6,1.2-1.3,1.3-2.2c0.1-0.8,0.2-2.2,0.2-3.9V363c0-1.8-0.1-3.1-0.2-3.9c-0.1-0.8-0.5-1.6-1.3-2.2c-0.8-0.6-2-0.9-3.8-0.9
	c-0.8,0-1.5-0.1-1.9-0.4c-0.4-0.2-0.6-0.8-0.6-1.7c0-0.4,0.1-0.8,0.4-1.2c0.3-0.4,0.7-0.6,1.3-0.7c4.5-0.7,8.2-1.6,11.1-2.7
	c1.2-0.3,2-0.5,2.4-0.6h0.3c1.1,0,1.7,0.7,1.7,2v6.5h0.3c0.4-0.4,1.4-1.4,3.1-3c1.7-1.6,3.5-2.8,5.6-3.7c2.1-0.8,4.5-1.3,7.2-1.3
	c3.3,0,6.2,0.7,8.6,2.1c2.4,1.4,4.2,3.3,5.4,5.8h0.2c2.7-2.5,5.3-4.5,7.7-5.9c2.4-1.4,5.6-2.1,9.5-2.1c4.7,0,8.4,1.4,11.2,4.3
	c2.8,2.8,4.2,6.5,4.2,11.1v22c0,1.8,0.1,3.1,0.2,3.9c0.1,0.8,0.6,1.5,1.3,2.2c0.8,0.6,2,0.9,3.8,0.9h0.6c0.5,0,1,0.1,1.2,0.3
	C294.9,394.2,295.1,394.8,295.1,395.6z"/>
<path class="st0" d="M350.3,373.5c0,4.6-1.1,8.9-3.3,12.7c-2.2,3.8-5.1,6.8-8.8,9.1c-3.7,2.2-7.5,3.3-11.7,3.3
	c-6.1,0-11.5-1.7-15.9-5.1h-0.5c-0.3,0.5-0.6,1.3-0.9,2.3c-0.3,1-0.7,1.7-1.1,2.2c-0.4,0.5-0.9,0.8-1.5,0.8c-0.6,0-1.1-0.2-1.5-0.6
	c-0.3-0.4-0.5-0.9-0.5-1.5v-60.4c0-1.8-0.1-3.1-0.2-3.9c-0.1-0.8-0.5-1.5-1.3-2.2c-0.8-0.6-2-0.9-3.8-0.9c-0.8,0-1.5-0.1-1.9-0.4
	c-0.4-0.3-0.6-0.8-0.6-1.7c0-0.4,0.1-0.8,0.4-1.2c0.3-0.4,0.7-0.6,1.2-0.7c4.3-0.6,8.1-1.5,11.2-2.7c1-0.3,1.8-0.5,2.4-0.6h0.3
	c1.1,0,1.7,0.7,1.7,2v31.2h0.3c2-2,4.3-3.5,6.8-4.5s5-1.5,7.5-1.5c4.1,0,7.8,1,11.1,3.1c3.3,2.1,5.9,5,7.8,8.7
	C349.4,364.7,350.3,368.9,350.3,373.5z"/>
<path class="st0" d="M407,373.2c0,5.2-1.2,9.7-3.7,13.5c-2.4,3.8-5.5,6.8-9.3,8.8c-3.7,2-7.4,3-11.2,3c-4.7,0-8.9-1.1-12.5-3.4
	c-3.7-2.3-6.5-5.2-8.5-8.9c-2-3.7-3-7.6-3-11.8c0-5.2,1.2-9.7,3.6-13.5c2.4-3.8,5.5-6.8,9.2-8.8c3.7-2,7.5-3.1,11.3-3.1
	c4.7,0,8.9,1.1,12.5,3.3c3.6,2.2,6.5,5.2,8.5,8.9C406,365.2,407,369.1,407,373.2z"/>
<path class="st0" d="M470,395.6c0,1.4-0.5,2.1-1.7,2.1c-0.6,0-1.7-0.1-3.1-0.2c-1.4-0.1-5-0.1-10.6-0.1c-2.1-2.1-6.9-7.6-14.4-16.3
	c-2.1-2.5-3.3-3.8-3.3-3.9c-2-2.1-4-3.1-6.1-2.9v12.5c0,1.8,0,3.1,0.1,3.9c0.1,0.8,0.5,1.5,1.3,2.2c0.8,0.6,2,0.9,3.8,0.9h0.6
	c0.6,0,1.1,0.1,1.4,0.3c0.3,0.2,0.4,0.7,0.5,1.6c0,0.5-0.2,1-0.5,1.4c-0.3,0.4-0.7,0.6-1.2,0.6c-4-0.2-7.6-0.3-10.8-0.3
	c-3.1,0-6.7,0.1-10.8,0.3c-0.6,0-1-0.2-1.3-0.6c-0.3-0.4-0.4-0.9-0.4-1.4c0.1-0.9,0.3-1.4,0.6-1.6c0.3-0.2,0.9-0.3,1.8-0.3
	c1.8,0,3.1-0.3,3.8-0.9c0.8-0.6,1.2-1.3,1.3-2.2c0.1-0.8,0.2-2.2,0.2-3.9v-50.4c0-1.8,0-3.1-0.2-3.9c-0.1-0.8-0.5-1.5-1.3-2.2
	c-0.8-0.6-2-0.9-3.8-0.9c-0.8,0-1.4-0.1-1.9-0.4c-0.4-0.3-0.6-0.8-0.6-1.7c0-0.4,0.1-0.8,0.4-1.2c0.3-0.4,0.7-0.6,1.3-0.7
	c4.3-0.6,8-1.5,11.2-2.7c1-0.3,1.8-0.5,2.4-0.6h0.3c1.1,0,1.7,0.7,1.7,2v47.3c3-0.6,5.5-1.9,7.5-3.8l8.7-8.9
	c0.1-0.2,0.5-0.6,1.2-1.4c0.7-0.7,1-1.3,1-1.8c0-1-1.6-1.5-4.8-1.3c-0.8-0.1-1.2-0.8-1.2-1.8c0-0.6,0.2-1,0.5-1.5
	c0.3-0.4,0.7-0.6,1.2-0.6c3.1,0.2,6.9,0.3,11.4,0.3c1,0,2.5-0.1,4.6-0.2l2.4-0.1c0.5,0,0.9,0.2,1.2,0.6c0.3,0.4,0.5,0.9,0.5,1.5
	c-0.1,0.8-0.3,1.3-0.5,1.5c-0.3,0.2-0.7,0.3-1.2,0.3c-2.6,0-4.7,0.5-6.3,1.4c-1.7,0.9-3.6,2.5-5.8,4.8l-8.7,8.9
	c1.8,2.4,5.6,6.8,11.4,13.2c2.6,2.9,4,4.4,4,4.6c2.5,2.6,4.3,4.4,5.5,5.3c1.2,0.9,2.7,1.4,4.5,1.5c0.1,0,0.4,0,0.9,0.1
	c0.5,0,0.8,0.2,1,0.4C469.9,394.5,470,395,470,395.6z"/>
<g>
	<defs>
		<rect id="SVGID_1_" y="74.2" width="500" height="332.4"/>
	</defs>
	<clipPath id="SVGID_2_">
		<use xlink:href="#SVGID_1_"  style="overflow:visible;"/>
	</clipPath>
	<g class="st2">
		<path d="M668.5,403v1.2l-620.7,2.2H45v-2.8l-0.9-188.2l-32.8,0.2l-11.4,0l9-7l171.5-132l2.9-2.2l3,2.2l172.7,130.4l13.7,10.3
			c-9.2,0-33.8,0.2-47.7,0.2l0.1,42.5h-12.1l0.1-48.5v-6l6,0l19.3,0.1l-155-119.2L22.8,207.9l25,0.1h3.7v3.7l-0.9,189.1L668.5,403z"
			/>
	</g>
</g>
<g>
	<g transform="translate(66.149758, 297.996565)">
		<g>
			<path d="M79.7,84.1l-2.1,13c-0.2,0.9-0.5,1.5-0.9,1.8c-0.4,0.3-1.1,0.4-2.1,0.4H40.7c-3.7,0-7.9,0.1-12.4,0.3
				c-0.6,0-1-0.2-1.3-0.7c-0.3-0.4-0.5-1-0.5-1.6c0.1-1,0.3-1.7,0.6-1.9c0.3-0.2,1-0.3,2-0.3c2,0,3.5-0.4,4.4-1.1
				c1-0.7,1.6-1.6,1.8-2.7c0.2-1.1,0.4-2.5,0.5-4.2v-41c-0.1-1.7-0.2-3.1-0.5-4.2c-0.2-1.1-0.8-2-1.8-2.7c-1-0.7-2.4-1.1-4.4-1.1
				h-0.6c-0.7,0-1.2-0.1-1.5-0.4c-0.3-0.2-0.5-0.8-0.5-1.8c0-0.6,0.1-1.2,0.5-1.6c0.3-0.4,0.8-0.7,1.3-0.7c4.5,0.2,8.6,0.3,12.3,0.3
				c4.1,0,8.4-0.1,12.9-0.3c0.6,0,1.1,0.2,1.4,0.7c0.3,0.5,0.5,1,0.5,1.6c-0.1,1-0.3,1.6-0.7,1.9c-0.4,0.2-1,0.3-1.9,0.3
				c-2,0-3.5,0.4-4.5,1.1c-1,0.7-1.6,1.6-1.8,2.7c-0.2,1-0.4,2.5-0.5,4.2v42.6c0.1,1.4,0.3,2.6,0.5,3.4c0.2,0.8,0.8,1.5,1.8,2.2
				c1,0.7,2.7,1,4.9,0.9h9.3c2.4-0.1,4.2-0.5,5.5-1.2c1.2-0.7,2.2-1.8,2.9-3.4c0.7-1.5,1.6-4,2.6-7.4c0.5-1.3,1.7-1.7,3.5-1.5
				c0.6,0.1,1.2,0.4,1.8,0.8C79.5,83,79.7,83.5,79.7,84.1z"/>
		</g>
	</g>
</g>
<g>
	<g transform="translate(110.436755, 297.996565)">
		<g>
			<path d="M86.2,63.5c-2-3.7-4.9-6.7-8.5-8.9c-3.6-2.2-7.8-3.3-12.5-3.3c-3.8,0-7.5,1-11.3,3.1c-3.7,2-6.8,5-9.2,8.8
				c-2.4,3.8-3.6,8.3-3.6,13.5c0,4.1,1,8.1,3,11.8c2,3.7,4.9,6.6,8.5,8.9c3.7,2.2,7.8,3.4,12.5,3.4c3.7,0,7.5-1,11.2-3
				c3.7-2,6.8-5,9.3-8.8c2.5-3.8,3.7-8.3,3.7-13.5C89.3,71.1,88.2,67.2,86.2,63.5z M75.4,90.8c-2.2,4-5.6,6-10.3,6
				c-4.6,0-8-1.9-10.2-5.7c-2.2-3.8-3.3-8.7-3.3-14.7c0-6.3,1.1-11.5,3.2-15.4c2.1-3.9,5.6-5.9,10.3-5.9c4.5,0,8,1.9,10.2,5.6
				c2.2,3.8,3.3,8.6,3.3,14.5C78.7,81.6,77.6,86.8,75.4,90.8z"/>
		</g>
	</g>
</g>
<g>
	<g transform="translate(152.939871, 297.996565)">
		<g>
			<path d="M142.2,97.6c0,0.5-0.2,1-0.5,1.4c-0.3,0.4-0.7,0.6-1.2,0.6c-4-0.2-7.6-0.3-10.8-0.3c-3.1,0-6.7,0.1-10.8,0.3
				c-0.5,0-1-0.2-1.2-0.6c-0.3-0.4-0.4-0.9-0.4-1.4c0.1-0.9,0.3-1.4,0.6-1.6c0.3-0.2,0.9-0.3,1.8-0.3c1.8,0,3.1-0.3,3.8-0.9
				c0.8-0.6,1.2-1.3,1.3-2.2c0.1-0.8,0.2-2.2,0.2-3.9V66.8c0-3.2-1-5.6-3-7.3c-2-1.7-4.3-2.5-6.9-2.5c-3.2,0-5.8,0.8-7.8,2.3
				c-2,1.5-3.4,3.1-4.2,4.9v24.6c0,0.4,0,1.3-0.1,2.8c0,1.5,0.4,2.5,1.2,3.2s2.1,1,3.9,1h0.6c0.6,0,1,0.1,1.3,0.3
				c0.2,0.2,0.4,0.7,0.5,1.6c0,0.5-0.1,1-0.4,1.4c-0.3,0.4-0.7,0.6-1.2,0.6c-4.1-0.2-7.6-0.3-10.5-0.3c-2.8,0-6.3,0.1-10.3,0.3
				c-0.6,0-1-0.2-1.3-0.6c-0.3-0.4-0.4-0.9-0.4-1.4c0.1-0.9,0.3-1.4,0.6-1.6c0.3-0.2,0.9-0.3,1.8-0.3c2.3,0,3.7-0.5,4.2-1.4
				c0.6-0.9,0.8-2,0.8-3.2c0-1.2,0-2,0-2.4V66.8c0-3.2-1-5.6-3-7.3c-2-1.7-4.3-2.5-6.9-2.5c-3.2,0-5.8,0.8-7.8,2.3
				c-2,1.5-3.5,3.1-4.3,4.9v24.6c0,1.8,0.1,3.1,0.2,3.9c0.1,0.8,0.6,1.5,1.3,2.2c0.8,0.6,2,0.9,3.8,0.9h0.6c0.5,0,1,0.1,1.2,0.3
				c0.3,0.2,0.4,0.7,0.5,1.6c0,0.5-0.1,1-0.4,1.4c-0.3,0.4-0.7,0.6-1.2,0.6c-4-0.2-7.6-0.3-10.9-0.3c-3.1,0-6.7,0.1-10.8,0.3
				c-0.5,0-0.9-0.2-1.2-0.6c-0.3-0.4-0.5-0.9-0.5-1.4c0.1-0.9,0.3-1.4,0.6-1.6c0.3-0.2,0.9-0.3,1.8-0.3c1.8,0,3.1-0.3,3.8-0.9
				c0.8-0.6,1.2-1.3,1.3-2.2c0.1-0.8,0.2-2.2,0.2-3.9V65c0-1.8-0.1-3.1-0.2-3.9c-0.1-0.8-0.5-1.6-1.3-2.2C60,58.3,58.8,58,57,58
				c-0.8,0-1.5-0.1-1.9-0.4c-0.4-0.2-0.6-0.8-0.6-1.7c0-0.4,0.1-0.8,0.4-1.2c0.3-0.4,0.7-0.6,1.3-0.7c4.5-0.7,8.2-1.6,11.1-2.7
				c1.2-0.3,2-0.5,2.4-0.6h0.3c1.1,0,1.7,0.7,1.7,2v6.5h0.3c0.4-0.4,1.4-1.4,3.1-3c1.7-1.6,3.5-2.8,5.6-3.7c2.1-0.8,4.5-1.3,7.2-1.3
				c3.3,0,6.2,0.7,8.6,2.1c2.4,1.4,4.2,3.3,5.4,5.8h0.2c2.7-2.5,5.3-4.5,7.7-5.9c2.4-1.4,5.6-2.1,9.5-2.1c4.7,0,8.4,1.4,11.2,4.3
				c2.8,2.8,4.2,6.5,4.2,11.1v22c0,1.8,0.1,3.1,0.2,3.9c0.1,0.8,0.6,1.5,1.3,2.2c0.8,0.6,2,0.9,3.8,0.9h0.6c0.5,0,1,0.1,1.2,0.3
				C141.9,96.2,142.1,96.8,142.2,97.6z"/>
		</g>
	</g>
</g>
<g>
	<g transform="translate(222.434001, 297.996565)">
		<g>
			<path d="M125.1,63c-1.9-3.7-4.5-6.6-7.8-8.7c-3.3-2.1-7-3.1-11.1-3.1c-2.5,0-5,0.5-7.5,1.5s-4.8,2.5-6.8,4.5h-0.3V26
				c0-1.3-0.6-2-1.7-2h-0.3c-0.6,0.1-1.4,0.3-2.4,0.6c-3.1,1.2-6.8,2.1-11.2,2.7c-0.5,0.1-1,0.3-1.2,0.7c-0.3,0.4-0.4,0.8-0.4,1.2
				c0,0.9,0.2,1.5,0.6,1.7c0.4,0.2,1,0.4,1.9,0.4c1.8,0,3.1,0.3,3.8,0.9c0.8,0.6,1.2,1.3,1.3,2.2c0.1,0.8,0.2,2.1,0.2,3.9v60.4
				c0,0.6,0.2,1.1,0.5,1.5c0.4,0.4,0.8,0.6,1.5,0.6c0.6,0,1.1-0.3,1.5-0.8c0.4-0.5,0.8-1.3,1.1-2.2c0.3-1,0.7-1.7,0.9-2.3h0.5
				c4.5,3.4,9.8,5.1,15.9,5.1c4.1,0,8-1.1,11.7-3.3c3.7-2.2,6.6-5.2,8.8-9.1c2.2-3.8,3.3-8.1,3.3-12.7C127.9,70.9,127,66.7,125.1,63
				z M113.5,91.3c-2.6,3.8-6,5.7-10.2,5.7c-2.2,0-4.2-0.5-5.9-1.4c-1.7-1-3-2.1-4-3.5c-1-1.3-1.6-2.6-1.8-3.7V61.2
				c3-3.2,6.6-4.8,11-4.8c4.9,0,8.6,1.9,11.1,5.8c2.5,3.8,3.7,8.4,3.7,13.8C117.4,82.4,116.1,87.5,113.5,91.3z"/>
		</g>
	</g>
	<g transform="translate(265.945397, 297.996565)">
		<g>
			<path d="M138,63.5c-2-3.7-4.9-6.7-8.5-8.9c-3.7-2.2-7.8-3.3-12.5-3.3c-3.8,0-7.5,1-11.3,3.1c-3.7,2-6.8,5-9.2,8.8
				c-2.4,3.8-3.6,8.3-3.6,13.5c0,4.1,1,8.1,3,11.8c2,3.7,4.9,6.6,8.5,8.9c3.7,2.2,7.8,3.4,12.5,3.4c3.7,0,7.4-1,11.2-3
				c3.7-2,6.8-5,9.3-8.8c2.5-3.8,3.7-8.3,3.7-13.5C141.1,71.1,140.1,67.2,138,63.5z M127.3,90.8c-2.2,4-5.6,6-10.3,6
				c-4.6,0-8-1.9-10.2-5.7c-2.2-3.8-3.3-8.7-3.3-14.7c0-6.3,1.1-11.5,3.2-15.4c2.1-3.9,5.6-5.9,10.3-5.9c4.5,0,8,1.9,10.2,5.6
				c2.2,3.8,3.4,8.6,3.4,14.5C130.5,81.6,129.4,86.8,127.3,90.8z"/>
		</g>
	</g>
	<g transform="translate(308.448507, 297.996565)">
		<g>
			<path d="M161.6,97.6c0,1.4-0.5,2.1-1.7,2.1c-0.6,0-1.7-0.1-3.1-0.2c-1.4-0.1-5-0.1-10.6-0.1c-2.1-2.1-6.9-7.6-14.4-16.3
				c-2.1-2.5-3.3-3.8-3.3-3.9c-2-2.1-4-3.1-6.1-2.9v12.5c0,1.8,0,3.1,0.1,3.9c0.1,0.8,0.5,1.5,1.3,2.2c0.8,0.6,2,0.9,3.8,0.9h0.6
				c0.6,0,1.1,0.1,1.4,0.3c0.3,0.2,0.4,0.7,0.5,1.6c0,0.5-0.2,1-0.5,1.4c-0.3,0.4-0.7,0.6-1.2,0.6c-4-0.2-7.6-0.3-10.8-0.3
				c-3.1,0-6.7,0.1-10.8,0.3c-0.6,0-1-0.2-1.3-0.6c-0.3-0.4-0.4-0.9-0.4-1.4c0.1-0.9,0.3-1.4,0.6-1.6c0.3-0.2,0.9-0.3,1.8-0.3
				c1.8,0,3.1-0.3,3.8-0.9c0.8-0.6,1.2-1.3,1.3-2.2c0.1-0.8,0.2-2.2,0.2-3.9V38.3c0-1.8,0-3.1-0.2-3.9c-0.1-0.8-0.5-1.5-1.3-2.2
				c-0.8-0.6-2-0.9-3.8-0.9c-0.8,0-1.4-0.1-1.9-0.4c-0.4-0.3-0.6-0.8-0.6-1.7c0-0.4,0.1-0.8,0.4-1.2c0.3-0.4,0.7-0.6,1.3-0.7
				c4.3-0.6,8-1.5,11.2-2.7c1-0.3,1.8-0.5,2.4-0.6h0.3c1.1,0,1.7,0.7,1.7,2v47.3c3-0.6,5.5-1.9,7.5-3.8l8.7-8.9
				c0.1-0.2,0.5-0.6,1.2-1.4c0.7-0.7,1-1.3,1-1.8c0-1-1.6-1.5-4.8-1.3c-0.8-0.1-1.2-0.8-1.2-1.8c0-0.6,0.2-1,0.5-1.5
				c0.3-0.4,0.7-0.6,1.2-0.6c3.1,0.2,6.9,0.3,11.4,0.3c1,0,2.5-0.1,4.6-0.2l2.4-0.1c0.5,0,0.9,0.2,1.2,0.6c0.3,0.4,0.5,0.9,0.5,1.5
				c-0.1,0.8-0.3,1.3-0.5,1.5c-0.3,0.2-0.7,0.3-1.2,0.3c-2.6,0-4.7,0.5-6.3,1.4c-1.7,0.9-3.6,2.5-5.8,4.8l-8.7,8.9
				c1.8,2.4,5.6,6.8,11.4,13.2c2.6,2.9,4,4.4,4,4.6c2.5,2.6,4.3,4.4,5.5,5.3c1.2,0.9,2.7,1.4,4.5,1.5c0.1,0,0.4,0,0.9,0.1
				c0.5,0,0.8,0.2,1,0.4C161.4,96.5,161.6,97,161.6,97.6z"/>
		</g>
	</g>
</g>
<g>
	<defs>
		<rect id="SVGID_3_" x="135.5" y="251.7" width="364.5" height="101.6"/>
	</defs>
	<clipPath id="SVGID_4_">
		<use xlink:href="#SVGID_3_"  style="overflow:visible;"/>
	</clipPath>
	<g class="st3">
		<path d="M320.2,267.6l184.6,85.7l-183.9-101l-0.3-0.6l-0.4,0.2l-0.4-0.2l-0.3,0.6l-183.9,101L320.2,267.6"/>
	</g>
</g>
<g>
	<g transform="translate(66.149758, 205.482021)">
		<g>
			<path d="M94.5,66.5c0,0.6-0.2,1.1-0.5,1.6c-0.3,0.4-0.8,0.7-1.4,0.7c-0.8-0.1-1.8-0.1-3-0.1c-2.5-0.1-4.4-0.2-5.8-0.2h-6.6
				c-9.1-10.1-17.2-19.3-24.4-27.6c-2.2-2.5-4.4-3.9-6.7-4.1v19.6c0.1,1.7,0.2,3.1,0.5,4.2c0.2,1.1,0.8,2,1.8,2.7
				c1,0.7,2.5,1.1,4.5,1.1h0.6c0.7,0,1.2,0.1,1.4,0.4c0.3,0.2,0.5,0.8,0.5,1.8c0,0.6-0.1,1.1-0.5,1.6c-0.3,0.4-0.8,0.7-1.4,0.7
				c-4.4-0.2-8.7-0.3-12.8-0.3c-3.7,0-7.8,0.1-12.3,0.3c-0.6,0-1.1-0.2-1.4-0.7c-0.3-0.5-0.5-1-0.5-1.6c0.1-1,0.3-1.7,0.6-1.9
				c0.3-0.2,1-0.3,2-0.3c2,0,3.5-0.4,4.4-1.1c1-0.7,1.6-1.6,1.8-2.7s0.4-2.5,0.5-4.2v-41c-0.1-1.7-0.2-3.1-0.5-4.2
				c-0.2-1.1-0.8-2-1.8-2.7c-1-0.7-2.4-1.1-4.4-1.1h-0.6c-0.7,0-1.2-0.1-1.5-0.3c-0.3-0.2-0.5-0.8-0.5-1.8c0-0.6,0.1-1.1,0.5-1.6
				c0.3-0.4,0.8-0.7,1.4-0.7c4.5,0.2,8.5,0.3,12.2,0.3c4.1,0,8.4-0.1,12.9-0.3c0.6,0,1.1,0.2,1.4,0.7c0.3,0.5,0.5,1,0.5,1.6
				c-0.1,1-0.3,1.7-0.6,1.9c-0.3,0.2-1,0.3-2,0.3c-2,0-3.5,0.4-4.5,1.1c-1,0.7-1.6,1.6-1.8,2.7c-0.2,1.1-0.4,2.5-0.5,4.2v18.7
				c1.1-0.2,2.3-0.8,3.7-1.8c1.4-1,3.1-2.3,5.1-4c3.9-3.6,8.7-8.9,14.6-15.8c1.2-1.4,1.9-2.5,1.9-3.3c0-1-0.9-1.6-2.8-1.7
				c-0.5-0.1-0.8-0.3-1-0.6c-0.2-0.3-0.3-0.8-0.5-1.6c0-0.6,0.2-1.2,0.5-1.6c0.3-0.5,0.8-0.7,1.3-0.7c2.4,0.2,6.2,0.3,11.4,0.3
				c1.7,0,4.1-0.1,7.2-0.2l2.2-0.1c0.6,0,1.1,0.2,1.5,0.7c0.3,0.5,0.5,1,0.5,1.7c-0.1,1-0.3,1.6-0.6,1.8c-0.3,0.2-0.8,0.4-1.5,0.4
				c-2.8-0.1-5.3,0.3-7.8,1.3c-2.4,1-5,2.9-7.7,5.6L57.3,31.9c2.4,3,4.9,5.8,7.4,8.5c2.6,2.7,5.6,5.8,9.2,9.4c1.8,1.8,3.9,4,6.4,6.6
				c0.8,0.8,1.3,1.3,1.5,1.7c2.2,2.2,4,3.7,5.2,4.6c1.3,0.9,2.9,1.5,4.7,1.7c0.1,0,0.4,0,0.9,0.1c0.5,0,0.9,0.2,1.2,0.6
				C94.3,65.3,94.5,65.8,94.5,66.5z"/>
		</g>
	</g>
</g>
<g>
	<g transform="translate(120.442048, 205.482021)">
		<g>
			<path d="M89.5,32.7c-2-3.7-4.9-6.7-8.5-8.9s-7.8-3.4-12.5-3.4c-3.8,0-7.5,1-11.3,3.1c-3.7,2-6.8,4.9-9.2,8.8
				c-2.4,3.8-3.6,8.3-3.6,13.5c0,4.1,1,8.1,3,11.8c2,3.7,4.9,6.6,8.5,8.9c3.7,2.2,7.8,3.4,12.5,3.4c3.7,0,7.5-1,11.2-3
				c3.7-2,6.8-5,9.3-8.8c2.5-3.8,3.7-8.3,3.7-13.5C92.6,40.3,91.6,36.4,89.5,32.7z M78.8,59.9c-2.2,4-5.6,6-10.3,6
				c-4.6,0-8-1.9-10.2-5.7c-2.2-3.8-3.3-8.7-3.3-14.6c0-6.4,1.1-11.5,3.2-15.4c2.1-3.9,5.6-5.9,10.3-5.9c4.5,0,8,1.9,10.2,5.6
				c2.2,3.8,3.4,8.6,3.4,14.5C82,50.7,80.9,55.9,78.8,59.9z"/>
		</g>
	</g>
</g>
<g>
	<g transform="translate(162.945164, 205.482021)">
		<g>
			<path d="M95.9,54.7c0,2.8-0.8,5.4-2.5,7.7c-1.7,2.3-3.9,4.1-6.8,5.4c-2.9,1.3-6.1,1.9-9.7,1.9c-5.5,0-10-1-13.4-2.9
				c-3.4-1.9-5.2-4.7-5.2-8.2c0-2,0.6-3.6,1.8-4.9c1.2-1.2,2.8-1.9,4.7-1.9c1.1,0,2.1,0.3,3,0.9c0.9,0.6,1.3,1.1,1.3,1.4
				c0,0.1-0.4,0.5-1.2,1.3c-0.8,0.8-1.2,2-1.2,3.5c0,2.1,1,3.7,2.8,4.9c1.9,1.2,4.6,1.8,8.2,1.8c3.2,0,5.8-0.7,7.6-2.1
				c1.8-1.4,2.8-3.4,2.8-5.9c0-1.7-0.5-3.1-1.6-4.2c-1-1.1-2.3-2-3.9-2.6c-1.5-0.6-3.7-1.3-6.5-2.2c-3.4-1-6.1-1.9-8.3-2.9
				s-4-2.4-5.5-4.3s-2.3-4.4-2.3-7.5c0-2.9,0.9-5.4,2.7-7.4c1.8-2.1,4.1-3.6,7-4.6c2.9-1.1,5.9-1.6,9-1.6c4.1,0,7.6,0.9,10.6,2.6
				c3,1.7,4.5,4.1,4.5,7.2c0,1.9-0.6,3.4-1.7,4.8c-1.1,1.3-2.6,2-4.5,2c-1.1,0-2.1-0.3-2.9-0.9c-0.9-0.6-1.3-1.1-1.3-1.5
				c0-0.1,0.3-0.3,0.8-0.8c0.5-0.5,1-1.1,1.5-1.7c0.5-0.7,0.7-1.4,0.7-2.3c-0.1-1.9-1.1-3.3-2.8-4.3c-1.7-1-3.8-1.5-6.1-1.5
				c-2.6,0-4.9,0.6-6.9,1.8c-2,1.2-2.9,2.9-2.9,5c0,1.9,0.4,3.5,1.2,4.6c0.8,1.1,2.1,2.1,3.7,2.8c1.7,0.7,4.3,1.6,7.9,2.8
				c3.6,1.2,6.5,2.3,8.6,3.3s3.7,2.3,4.9,4C95.3,49.8,95.9,52,95.9,54.7z"/>
		</g>
	</g>
</g>
</svg>
