<svg xmlns="http://www.w3.org/2000/svg" xmlns:xlink="http://www.w3.org/1999/xlink" width="500" zoomAndPan="magnify" viewBox="0 0 375 374.999991" height="500" preserveAspectRatio="xMidYMid meet" version="1.0"><defs><g/><clipPath id="d08f561f09"><path d="M 0 55.679688 L 375 55.679688 L 375 304.980469 L 0 304.980469 Z M 0 55.679688 " clip-rule="nonzero"/></clipPath><clipPath id="9285955c64"><path d="M 101.644531 188.777344 L 375 188.777344 L 375 264.953125 L 101.644531 264.953125 Z M 101.644531 188.777344 " clip-rule="nonzero"/></clipPath></defs><rect x="-37.5" width="450" fill="#ffffff" y="-37.499999" height="449.999989" fill-opacity="1"/><rect x="-37.5" width="450" fill="#ffffff" y="-37.499999" height="449.999989" fill-opacity="1"/><g clip-path="url(#d08f561f09)"><path fill="#000000" d="M 501.371094 302.261719 L 501.371094 303.167969 L 35.863281 304.839844 L 33.746094 304.839844 L 33.746094 302.730469 L 33.101562 161.558594 L 8.519531 161.675781 L 0 161.707031 L 6.785156 156.492188 L 135.402344 57.488281 L 137.578125 55.820312 L 139.808594 57.488281 L 269.308594 155.292969 L 279.589844 163.050781 C 272.714844 163.082031 254.269531 163.167969 243.84375 163.199219 L 243.902344 195.058594 L 234.796875 195.058594 L 234.855469 158.71875 L 234.855469 154.207031 L 239.347656 154.238281 L 253.800781 154.296875 L 137.578125 64.925781 L 17.09375 155.9375 L 35.863281 156.023438 L 38.652344 156.023438 L 38.652344 158.777344 L 37.976562 300.621094 Z M 501.371094 302.261719 " fill-opacity="1" fill-rule="nonzero"/></g><g fill="#000000" fill-opacity="1"><g transform="translate(66.149758, 297.996565)"><g><path d="M 4.65625 0.234375 C 4.238281 0.234375 3.910156 0.0664062 3.671875 -0.265625 C 3.441406 -0.609375 3.328125 -1.007812 3.328125 -1.46875 C 3.378906 -2.25 3.535156 -2.71875 3.796875 -2.875 C 4.054688 -3.03125 4.550781 -3.109375 5.28125 -3.109375 C 6.78125 -3.109375 7.890625 -3.378906 8.609375 -3.921875 C 9.335938 -4.460938 9.789062 -5.132812 9.96875 -5.9375 C 10.144531 -6.738281 10.257812 -7.785156 10.3125 -9.078125 L 10.3125 -39.859375 C 10.257812 -41.160156 10.144531 -42.207031 9.96875 -43 C 9.789062 -43.800781 9.335938 -44.472656 8.609375 -45.015625 C 7.890625 -45.566406 6.78125 -45.84375 5.28125 -45.84375 L 4.8125 -45.84375 C 4.289062 -45.84375 3.925781 -45.929688 3.71875 -46.109375 C 3.507812 -46.285156 3.378906 -46.738281 3.328125 -47.46875 C 3.328125 -47.9375 3.441406 -48.335938 3.671875 -48.671875 C 3.910156 -49.003906 4.238281 -49.171875 4.65625 -49.171875 C 8.0625 -49.015625 11.140625 -48.9375 13.890625 -48.9375 C 16.984375 -48.9375 20.210938 -49.015625 23.578125 -49.171875 C 24.046875 -49.171875 24.394531 -49.003906 24.625 -48.671875 C 24.851562 -48.335938 24.96875 -47.9375 24.96875 -47.46875 C 24.914062 -46.695312 24.75 -46.234375 24.46875 -46.078125 C 24.1875 -45.921875 23.707031 -45.84375 23.03125 -45.84375 C 21.53125 -45.84375 20.414062 -45.566406 19.6875 -45.015625 C 18.96875 -44.472656 18.519531 -43.800781 18.34375 -43 C 18.164062 -42.207031 18.050781 -41.160156 18 -39.859375 L 18 -7.90625 C 18.101562 -6.820312 18.226562 -5.984375 18.375 -5.390625 C 18.53125 -4.796875 18.992188 -4.253906 19.765625 -3.765625 C 20.546875 -3.273438 21.765625 -3.054688 23.421875 -3.109375 L 30.40625 -3.109375 C 32.21875 -3.160156 33.585938 -3.457031 34.515625 -4 C 35.441406 -4.539062 36.175781 -5.378906 36.71875 -6.515625 C 37.269531 -7.648438 37.929688 -9.507812 38.703125 -12.09375 C 39.066406 -13.03125 39.945312 -13.394531 41.34375 -13.1875 C 41.800781 -13.082031 42.238281 -12.875 42.65625 -12.5625 C 43.070312 -12.25 43.253906 -11.863281 43.203125 -11.40625 L 41.65625 -1.625 C 41.5 -0.957031 41.265625 -0.519531 40.953125 -0.3125 C 40.640625 -0.101562 40.125 0 39.40625 0 L 13.96875 0 C 11.164062 0 8.0625 0.078125 4.65625 0.234375 Z M 4.65625 0.234375 "/></g></g></g><g fill="#000000" fill-opacity="1"><g transform="translate(110.436755, 297.996565)"><g><path d="M 21.25 0.9375 C 17.738281 0.9375 14.609375 0.0976562 11.859375 -1.578125 C 9.117188 -3.265625 6.988281 -5.488281 5.46875 -8.25 C 3.945312 -11.019531 3.1875 -13.957031 3.1875 -17.0625 C 3.1875 -20.9375 4.085938 -24.304688 5.890625 -27.171875 C 7.703125 -30.046875 10.003906 -32.242188 12.796875 -33.765625 C 15.585938 -35.296875 18.40625 -36.0625 21.25 -36.0625 C 24.769531 -36.0625 27.898438 -35.222656 30.640625 -33.546875 C 33.378906 -31.867188 35.507812 -29.644531 37.03125 -26.875 C 38.5625 -24.101562 39.328125 -21.171875 39.328125 -18.078125 C 39.328125 -14.191406 38.40625 -10.8125 36.5625 -7.9375 C 34.726562 -5.070312 32.414062 -2.875 29.625 -1.34375 C 26.832031 0.175781 24.039062 0.9375 21.25 0.9375 Z M 21.25 -1.9375 C 24.769531 -1.9375 27.34375 -3.4375 28.96875 -6.4375 C 30.59375 -9.4375 31.40625 -13.316406 31.40625 -18.078125 C 31.40625 -22.523438 30.566406 -26.15625 28.890625 -28.96875 C 27.210938 -31.789062 24.664062 -33.203125 21.25 -33.203125 C 17.6875 -33.203125 15.101562 -31.726562 13.5 -28.78125 C 11.894531 -25.832031 11.09375 -21.976562 11.09375 -17.21875 C 11.09375 -12.769531 11.921875 -9.109375 13.578125 -6.234375 C 15.234375 -3.367188 17.789062 -1.9375 21.25 -1.9375 Z M 21.25 -1.9375 "/></g></g></g><g fill="#000000" fill-opacity="1"><g transform="translate(152.939871, 297.996565)"><g><path d="M 3.875 0.234375 C 3.507812 0.234375 3.210938 0.078125 2.984375 -0.234375 C 2.753906 -0.546875 2.640625 -0.90625 2.640625 -1.3125 C 2.691406 -1.988281 2.832031 -2.390625 3.0625 -2.515625 C 3.289062 -2.648438 3.742188 -2.71875 4.421875 -2.71875 C 5.765625 -2.71875 6.71875 -2.945312 7.28125 -3.40625 C 7.851562 -3.875 8.191406 -4.414062 8.296875 -5.03125 C 8.398438 -5.65625 8.453125 -6.640625 8.453125 -7.984375 L 8.453125 -25.75 C 8.453125 -27.09375 8.410156 -28.070312 8.328125 -28.6875 C 8.253906 -29.3125 7.929688 -29.859375 7.359375 -30.328125 C 6.796875 -30.796875 5.84375 -31.03125 4.5 -31.03125 C 3.875 -31.03125 3.40625 -31.117188 3.09375 -31.296875 C 2.789062 -31.472656 2.640625 -31.898438 2.640625 -32.578125 C 2.640625 -32.890625 2.738281 -33.1875 2.9375 -33.46875 C 3.144531 -33.75 3.457031 -33.914062 3.875 -33.96875 C 7.238281 -34.488281 10.003906 -35.160156 12.171875 -35.984375 C 13.054688 -36.242188 13.65625 -36.398438 13.96875 -36.453125 L 14.1875 -36.453125 C 15.019531 -36.453125 15.4375 -35.960938 15.4375 -34.984375 L 15.4375 -30.09375 L 15.671875 -30.09375 C 15.984375 -30.40625 16.757812 -31.164062 18 -32.375 C 19.238281 -33.59375 20.644531 -34.507812 22.21875 -35.125 C 23.800781 -35.75 25.597656 -36.0625 27.609375 -36.0625 C 30.085938 -36.0625 32.234375 -35.53125 34.046875 -34.46875 C 35.859375 -33.414062 37.203125 -31.957031 38.078125 -30.09375 L 38.234375 -30.09375 C 40.253906 -32.007812 42.179688 -33.484375 44.015625 -34.515625 C 45.847656 -35.546875 48.210938 -36.0625 51.109375 -36.0625 C 54.628906 -36.0625 57.421875 -35 59.484375 -32.875 C 61.554688 -30.757812 62.59375 -27.972656 62.59375 -24.515625 L 62.59375 -7.984375 C 62.59375 -6.640625 62.644531 -5.65625 62.75 -5.03125 C 62.851562 -4.414062 63.1875 -3.875 63.75 -3.40625 C 64.320312 -2.945312 65.28125 -2.71875 66.625 -2.71875 L 67.09375 -2.71875 C 67.507812 -2.71875 67.816406 -2.640625 68.015625 -2.484375 C 68.222656 -2.328125 68.351562 -1.9375 68.40625 -1.3125 C 68.40625 -0.90625 68.289062 -0.546875 68.0625 -0.234375 C 67.832031 0.078125 67.535156 0.234375 67.171875 0.234375 C 64.171875 0.078125 61.457031 0 59.03125 0 C 56.695312 0 54.003906 0.078125 50.953125 0.234375 C 50.546875 0.234375 50.238281 0.078125 50.03125 -0.234375 C 49.820312 -0.546875 49.71875 -0.90625 49.71875 -1.3125 C 49.769531 -1.988281 49.910156 -2.390625 50.140625 -2.515625 C 50.378906 -2.648438 50.832031 -2.71875 51.5 -2.71875 C 52.84375 -2.71875 53.796875 -2.945312 54.359375 -3.40625 C 54.929688 -3.875 55.269531 -4.414062 55.375 -5.03125 C 55.476562 -5.65625 55.53125 -6.640625 55.53125 -7.984375 L 55.53125 -24.4375 C 55.53125 -26.8125 54.78125 -28.628906 53.28125 -29.890625 C 51.78125 -31.160156 50.050781 -31.796875 48.09375 -31.796875 C 45.707031 -31.796875 43.765625 -31.226562 42.265625 -30.09375 C 40.765625 -28.957031 39.707031 -27.742188 39.09375 -26.453125 L 39.09375 -7.984375 C 39.09375 -7.679688 39.078125 -6.984375 39.046875 -5.890625 C 39.023438 -4.804688 39.3125 -4.003906 39.90625 -3.484375 C 40.5 -2.972656 41.46875 -2.71875 42.8125 -2.71875 L 43.28125 -2.71875 C 43.75 -2.71875 44.070312 -2.640625 44.25 -2.484375 C 44.425781 -2.328125 44.539062 -1.9375 44.59375 -1.3125 C 44.59375 -0.90625 44.488281 -0.546875 44.28125 -0.234375 C 44.082031 0.078125 43.773438 0.234375 43.359375 0.234375 C 40.304688 0.078125 37.671875 0 35.453125 0 C 33.328125 0 30.738281 0.078125 27.6875 0.234375 C 27.269531 0.234375 26.957031 0.078125 26.75 -0.234375 C 26.550781 -0.546875 26.453125 -0.90625 26.453125 -1.3125 C 26.503906 -1.988281 26.644531 -2.390625 26.875 -2.515625 C 27.101562 -2.648438 27.554688 -2.71875 28.234375 -2.71875 C 29.941406 -2.71875 31 -3.066406 31.40625 -3.765625 C 31.820312 -4.460938 32.015625 -5.265625 31.984375 -6.171875 C 31.960938 -7.078125 31.953125 -7.679688 31.953125 -7.984375 L 31.953125 -24.4375 C 31.953125 -26.8125 31.210938 -28.628906 29.734375 -29.890625 C 28.265625 -31.160156 26.550781 -31.796875 24.59375 -31.796875 C 22.207031 -31.796875 20.265625 -31.226562 18.765625 -30.09375 C 17.265625 -28.957031 16.179688 -27.742188 15.515625 -26.453125 L 15.515625 -7.984375 C 15.515625 -6.640625 15.566406 -5.65625 15.671875 -5.03125 C 15.773438 -4.414062 16.109375 -3.875 16.671875 -3.40625 C 17.242188 -2.945312 18.203125 -2.71875 19.546875 -2.71875 L 20.015625 -2.71875 C 20.421875 -2.71875 20.726562 -2.640625 20.9375 -2.484375 C 21.144531 -2.328125 21.273438 -1.9375 21.328125 -1.3125 C 21.328125 -0.90625 21.222656 -0.546875 21.015625 -0.234375 C 20.804688 0.078125 20.5 0.234375 20.09375 0.234375 C 17.09375 0.078125 14.375 0 11.9375 0 C 9.613281 0 6.925781 0.078125 3.875 0.234375 Z M 3.875 0.234375 "/></g></g></g><g fill="#000000" fill-opacity="1"><g transform="translate(222.434001, 297.996565)"><g><path d="M 7.53125 1.078125 C 7.0625 1.078125 6.695312 0.9375 6.4375 0.65625 C 6.175781 0.375 6.046875 0 6.046875 -0.46875 L 6.046875 -45.765625 C 6.046875 -47.109375 6.003906 -48.085938 5.921875 -48.703125 C 5.847656 -49.328125 5.523438 -49.867188 4.953125 -50.328125 C 4.390625 -50.796875 3.4375 -51.03125 2.09375 -51.03125 C 1.46875 -51.03125 1 -51.117188 0.6875 -51.296875 C 0.382812 -51.484375 0.234375 -51.914062 0.234375 -52.59375 C 0.234375 -52.894531 0.335938 -53.1875 0.546875 -53.46875 C 0.753906 -53.757812 1.0625 -53.929688 1.46875 -53.984375 C 4.726562 -54.453125 7.519531 -55.125 9.84375 -56 C 10.570312 -56.257812 11.171875 -56.414062 11.640625 -56.46875 L 11.859375 -56.46875 C 12.691406 -56.46875 13.109375 -55.972656 13.109375 -54.984375 L 13.109375 -31.5625 L 13.34375 -31.5625 C 14.84375 -33.0625 16.535156 -34.1875 18.421875 -34.9375 C 20.304688 -35.6875 22.179688 -36.0625 24.046875 -36.0625 C 27.097656 -36.0625 29.863281 -35.285156 32.34375 -33.734375 C 34.820312 -32.179688 36.769531 -30.019531 38.1875 -27.25 C 39.613281 -24.488281 40.328125 -21.351562 40.328125 -17.84375 C 40.328125 -14.375 39.515625 -11.203125 37.890625 -8.328125 C 36.265625 -5.460938 34.078125 -3.203125 31.328125 -1.546875 C 28.585938 0.109375 25.671875 0.9375 22.578125 0.9375 C 17.972656 0.9375 13.988281 -0.332031 10.625 -2.875 L 10.234375 -2.875 C 10.023438 -2.457031 9.789062 -1.882812 9.53125 -1.15625 C 9.28125 -0.4375 9 0.113281 8.6875 0.5 C 8.375 0.882812 7.988281 1.078125 7.53125 1.078125 Z M 21.875 -1.703125 C 25.03125 -1.703125 27.578125 -3.132812 29.515625 -6 C 31.453125 -8.875 32.421875 -12.71875 32.421875 -17.53125 C 32.421875 -21.5625 31.488281 -25.007812 29.625 -27.875 C 27.769531 -30.75 25.003906 -32.1875 21.328125 -32.1875 C 18.066406 -32.1875 15.328125 -31 13.109375 -28.625 L 13.109375 -8.140625 C 13.265625 -7.316406 13.71875 -6.398438 14.46875 -5.390625 C 15.21875 -4.378906 16.222656 -3.507812 17.484375 -2.78125 C 18.753906 -2.0625 20.21875 -1.703125 21.875 -1.703125 Z M 21.875 -1.703125 "/></g></g><g transform="translate(265.945397, 297.996565)"><g><path d="M 21.25 0.9375 C 17.738281 0.9375 14.609375 0.0976562 11.859375 -1.578125 C 9.117188 -3.265625 6.988281 -5.488281 5.46875 -8.25 C 3.945312 -11.019531 3.1875 -13.957031 3.1875 -17.0625 C 3.1875 -20.9375 4.085938 -24.304688 5.890625 -27.171875 C 7.703125 -30.046875 10.003906 -32.242188 12.796875 -33.765625 C 15.585938 -35.296875 18.40625 -36.0625 21.25 -36.0625 C 24.769531 -36.0625 27.898438 -35.222656 30.640625 -33.546875 C 33.378906 -31.867188 35.507812 -29.644531 37.03125 -26.875 C 38.5625 -24.101562 39.328125 -21.171875 39.328125 -18.078125 C 39.328125 -14.191406 38.40625 -10.8125 36.5625 -7.9375 C 34.726562 -5.070312 32.414062 -2.875 29.625 -1.34375 C 26.832031 0.175781 24.039062 0.9375 21.25 0.9375 Z M 21.25 -1.9375 C 24.769531 -1.9375 27.34375 -3.4375 28.96875 -6.4375 C 30.59375 -9.4375 31.40625 -13.316406 31.40625 -18.078125 C 31.40625 -22.523438 30.566406 -26.15625 28.890625 -28.96875 C 27.210938 -31.789062 24.664062 -33.203125 21.25 -33.203125 C 17.6875 -33.203125 15.101562 -31.726562 13.5 -28.78125 C 11.894531 -25.832031 11.09375 -21.976562 11.09375 -17.21875 C 11.09375 -12.769531 11.921875 -9.109375 13.578125 -6.234375 C 15.234375 -3.367188 17.789062 -1.9375 21.25 -1.9375 Z M 21.25 -1.9375 "/></g></g><g transform="translate(308.448507, 297.996565)"><g><path d="M 3.03125 0.234375 C 2.613281 0.234375 2.300781 0.078125 2.09375 -0.234375 C 1.882812 -0.546875 1.78125 -0.90625 1.78125 -1.3125 C 1.832031 -1.988281 1.972656 -2.390625 2.203125 -2.515625 C 2.441406 -2.648438 2.894531 -2.71875 3.5625 -2.71875 C 4.90625 -2.71875 5.863281 -2.945312 6.4375 -3.40625 C 7.007812 -3.875 7.34375 -4.414062 7.4375 -5.03125 C 7.539062 -5.65625 7.59375 -6.640625 7.59375 -7.984375 L 7.59375 -45.765625 C 7.59375 -47.109375 7.554688 -48.085938 7.484375 -48.703125 C 7.410156 -49.328125 7.085938 -49.867188 6.515625 -50.328125 C 5.941406 -50.796875 4.984375 -51.03125 3.640625 -51.03125 C 3.023438 -51.03125 2.5625 -51.117188 2.25 -51.296875 C 1.9375 -51.484375 1.78125 -51.914062 1.78125 -52.59375 C 1.78125 -52.894531 1.882812 -53.1875 2.09375 -53.46875 C 2.300781 -53.757812 2.613281 -53.929688 3.03125 -53.984375 C 6.28125 -54.453125 9.070312 -55.125 11.40625 -56 C 12.125 -56.257812 12.71875 -56.414062 13.1875 -56.46875 L 13.421875 -56.46875 C 14.242188 -56.46875 14.65625 -55.972656 14.65625 -54.984375 L 14.65625 -19.546875 C 16.9375 -20.015625 18.800781 -20.972656 20.25 -22.421875 L 26.765625 -29.09375 C 26.867188 -29.238281 27.175781 -29.582031 27.6875 -30.125 C 28.207031 -30.675781 28.46875 -31.128906 28.46875 -31.484375 C 28.46875 -32.265625 27.273438 -32.578125 24.890625 -32.421875 C 24.328125 -32.523438 24.019531 -32.988281 23.96875 -33.8125 C 23.96875 -34.226562 24.082031 -34.59375 24.3125 -34.90625 C 24.550781 -35.21875 24.847656 -35.375 25.203125 -35.375 C 27.535156 -35.21875 30.378906 -35.140625 33.734375 -35.140625 C 34.460938 -35.140625 35.601562 -35.191406 37.15625 -35.296875 L 38.9375 -35.375 C 39.300781 -35.375 39.597656 -35.21875 39.828125 -34.90625 C 40.054688 -34.59375 40.171875 -34.226562 40.171875 -33.8125 C 40.117188 -33.195312 39.988281 -32.8125 39.78125 -32.65625 C 39.582031 -32.5 39.273438 -32.421875 38.859375 -32.421875 C 36.941406 -32.421875 35.363281 -32.082031 34.125 -31.40625 C 32.882812 -30.738281 31.4375 -29.550781 29.78125 -27.84375 L 23.265625 -21.171875 C 24.609375 -19.359375 27.453125 -16.050781 31.796875 -11.25 C 33.765625 -9.070312 34.773438 -7.929688 34.828125 -7.828125 C 36.691406 -5.867188 38.070312 -4.550781 38.96875 -3.875 C 39.875 -3.207031 41 -2.820312 42.34375 -2.71875 C 42.445312 -2.71875 42.664062 -2.703125 43 -2.671875 C 43.34375 -2.648438 43.601562 -2.535156 43.78125 -2.328125 C 43.96875 -2.117188 44.0625 -1.78125 44.0625 -1.3125 C 44.0625 -0.28125 43.644531 0.234375 42.8125 0.234375 C 42.34375 0.234375 41.566406 0.191406 40.484375 0.109375 C 39.398438 0.0351562 36.738281 0 32.5 0 C 30.945312 -1.601562 27.351562 -5.6875 21.71875 -12.25 C 19.957031 -14.320312 19.128906 -15.304688 19.234375 -15.203125 C 17.734375 -16.804688 16.207031 -17.53125 14.65625 -17.375 L 14.65625 -7.984375 C 14.65625 -6.640625 14.691406 -5.65625 14.765625 -5.03125 C 14.847656 -4.414062 15.171875 -3.875 15.734375 -3.40625 C 16.304688 -2.945312 17.265625 -2.71875 18.609375 -2.71875 L 19.078125 -2.71875 C 19.546875 -2.71875 19.882812 -2.640625 20.09375 -2.484375 C 20.300781 -2.328125 20.425781 -1.9375 20.46875 -1.3125 C 20.46875 -0.90625 20.351562 -0.546875 20.125 -0.234375 C 19.894531 0.078125 19.597656 0.234375 19.234375 0.234375 C 16.234375 0.078125 13.519531 0 11.09375 0 C 8.757812 0 6.070312 0.078125 3.03125 0.234375 Z M 3.03125 0.234375 "/></g></g></g><g clip-path="url(#9285955c64)"><path fill="#000000" d="M 240.144531 200.714844 L 378.585938 264.953125 L 240.679688 189.234375 L 240.449219 188.777344 L 240.144531 188.941406 L 239.84375 188.777344 L 239.613281 189.234375 L 101.703125 264.953125 L 240.144531 200.714844 " fill-opacity="1" fill-rule="nonzero"/></g><g fill="#000000" fill-opacity="1"><g transform="translate(66.149758, 205.482021)"><g><path d="M 4.734375 0.234375 C 4.265625 0.234375 3.910156 0.0664062 3.671875 -0.265625 C 3.441406 -0.609375 3.328125 -1.007812 3.328125 -1.46875 C 3.378906 -2.25 3.535156 -2.71875 3.796875 -2.875 C 4.054688 -3.03125 4.550781 -3.109375 5.28125 -3.109375 C 6.78125 -3.109375 7.890625 -3.378906 8.609375 -3.921875 C 9.335938 -4.460938 9.789062 -5.132812 9.96875 -5.9375 C 10.144531 -6.738281 10.257812 -7.785156 10.3125 -9.078125 L 10.3125 -39.859375 C 10.257812 -41.160156 10.144531 -42.207031 9.96875 -43 C 9.789062 -43.800781 9.335938 -44.472656 8.609375 -45.015625 C 7.890625 -45.566406 6.78125 -45.84375 5.28125 -45.84375 L 4.8125 -45.84375 C 4.289062 -45.84375 3.925781 -45.929688 3.71875 -46.109375 C 3.507812 -46.285156 3.378906 -46.738281 3.328125 -47.46875 C 3.328125 -47.9375 3.441406 -48.335938 3.671875 -48.671875 C 3.910156 -49.003906 4.265625 -49.171875 4.734375 -49.171875 C 8.085938 -49.015625 11.140625 -48.9375 13.890625 -48.9375 C 16.984375 -48.9375 20.210938 -49.015625 23.578125 -49.171875 C 24.046875 -49.171875 24.394531 -49.003906 24.625 -48.671875 C 24.851562 -48.335938 24.96875 -47.9375 24.96875 -47.46875 C 24.914062 -46.695312 24.757812 -46.234375 24.5 -46.078125 C 24.25 -45.921875 23.757812 -45.84375 23.03125 -45.84375 C 21.53125 -45.84375 20.414062 -45.566406 19.6875 -45.015625 C 18.96875 -44.472656 18.519531 -43.800781 18.34375 -43 C 18.164062 -42.207031 18.050781 -41.160156 18 -39.859375 L 18 -25.828125 C 18.820312 -25.984375 19.75 -26.421875 20.78125 -27.140625 C 21.820312 -27.867188 23.09375 -28.878906 24.59375 -30.171875 C 27.488281 -32.859375 31.132812 -36.8125 35.53125 -42.03125 C 36.457031 -43.070312 36.921875 -43.898438 36.921875 -44.515625 C 36.921875 -45.296875 36.222656 -45.710938 34.828125 -45.765625 C 34.460938 -45.816406 34.210938 -45.957031 34.078125 -46.1875 C 33.953125 -46.414062 33.835938 -46.816406 33.734375 -47.390625 C 33.734375 -47.859375 33.863281 -48.269531 34.125 -48.625 C 34.382812 -48.988281 34.722656 -49.171875 35.140625 -49.171875 C 36.941406 -49.015625 39.785156 -48.9375 43.671875 -48.9375 C 44.910156 -48.9375 46.71875 -48.988281 49.09375 -49.09375 L 50.71875 -49.171875 C 51.1875 -49.171875 51.550781 -49.003906 51.8125 -48.671875 C 52.070312 -48.335938 52.203125 -47.910156 52.203125 -47.390625 C 52.148438 -46.671875 51.992188 -46.21875 51.734375 -46.03125 C 51.472656 -45.851562 51.109375 -45.765625 50.640625 -45.765625 C 48.578125 -45.867188 46.625 -45.53125 44.78125 -44.75 C 42.945312 -43.976562 41.023438 -42.582031 39.015625 -40.5625 L 26.453125 -27.453125 C 28.253906 -25.234375 30.113281 -23.113281 32.03125 -21.09375 C 33.945312 -19.082031 36.25 -16.726562 38.9375 -14.03125 C 40.28125 -12.6875 41.882812 -11.035156 43.75 -9.078125 C 44.3125 -8.503906 44.695312 -8.085938 44.90625 -7.828125 C 46.5625 -6.179688 47.867188 -5.019531 48.828125 -4.34375 C 49.785156 -3.664062 50.960938 -3.253906 52.359375 -3.109375 C 52.460938 -3.109375 52.691406 -3.09375 53.046875 -3.0625 C 53.410156 -3.039062 53.707031 -2.898438 53.9375 -2.640625 C 54.175781 -2.378906 54.296875 -1.988281 54.296875 -1.46875 C 54.296875 -1.007812 54.175781 -0.609375 53.9375 -0.265625 C 53.707031 0.0664062 53.359375 0.234375 52.890625 0.234375 C 52.273438 0.179688 51.523438 0.15625 50.640625 0.15625 C 48.785156 0.0507812 47.34375 0 46.3125 0 L 41.34375 0 C 34.519531 -7.601562 28.414062 -14.503906 23.03125 -20.703125 C 21.375 -22.617188 19.695312 -23.65625 18 -23.8125 L 18 -9.078125 C 18.050781 -7.785156 18.164062 -6.738281 18.34375 -5.9375 C 18.519531 -5.132812 18.96875 -4.460938 19.6875 -3.921875 C 20.414062 -3.378906 21.53125 -3.109375 23.03125 -3.109375 L 23.5 -3.109375 C 24.019531 -3.109375 24.378906 -3.015625 24.578125 -2.828125 C 24.785156 -2.648438 24.914062 -2.195312 24.96875 -1.46875 C 24.96875 -1.007812 24.851562 -0.609375 24.625 -0.265625 C 24.394531 0.0664062 24.046875 0.234375 23.578125 0.234375 C 20.265625 0.078125 17.0625 0 13.96875 0 C 11.164062 0 8.085938 0.078125 4.734375 0.234375 Z M 4.734375 0.234375 "/></g></g></g><g fill="#000000" fill-opacity="1"><g transform="translate(120.442048, 205.482021)"><g><path d="M 21.25 0.9375 C 17.738281 0.9375 14.609375 0.0976562 11.859375 -1.578125 C 9.117188 -3.265625 6.988281 -5.488281 5.46875 -8.25 C 3.945312 -11.019531 3.1875 -13.957031 3.1875 -17.0625 C 3.1875 -20.9375 4.085938 -24.304688 5.890625 -27.171875 C 7.703125 -30.046875 10.003906 -32.242188 12.796875 -33.765625 C 15.585938 -35.296875 18.40625 -36.0625 21.25 -36.0625 C 24.769531 -36.0625 27.898438 -35.222656 30.640625 -33.546875 C 33.378906 -31.867188 35.507812 -29.644531 37.03125 -26.875 C 38.5625 -24.101562 39.328125 -21.171875 39.328125 -18.078125 C 39.328125 -14.191406 38.40625 -10.8125 36.5625 -7.9375 C 34.726562 -5.070312 32.414062 -2.875 29.625 -1.34375 C 26.832031 0.175781 24.039062 0.9375 21.25 0.9375 Z M 21.25 -1.9375 C 24.769531 -1.9375 27.34375 -3.4375 28.96875 -6.4375 C 30.59375 -9.4375 31.40625 -13.316406 31.40625 -18.078125 C 31.40625 -22.523438 30.566406 -26.15625 28.890625 -28.96875 C 27.210938 -31.789062 24.664062 -33.203125 21.25 -33.203125 C 17.6875 -33.203125 15.101562 -31.726562 13.5 -28.78125 C 11.894531 -25.832031 11.09375 -21.976562 11.09375 -17.21875 C 11.09375 -12.769531 11.921875 -9.109375 13.578125 -6.234375 C 15.234375 -3.367188 17.789062 -1.9375 21.25 -1.9375 Z M 21.25 -1.9375 "/></g></g></g><g fill="#000000" fill-opacity="1"><g transform="translate(162.945164, 205.482021)"><g><path d="M 16.90625 0.9375 C 12.769531 0.9375 9.410156 0.210938 6.828125 -1.234375 C 4.242188 -2.679688 2.953125 -4.726562 2.953125 -7.375 C 2.953125 -8.875 3.398438 -10.085938 4.296875 -11.015625 C 5.203125 -11.941406 6.378906 -12.40625 7.828125 -12.40625 C 8.660156 -12.40625 9.398438 -12.171875 10.046875 -11.703125 C 10.691406 -11.242188 11.015625 -10.882812 11.015625 -10.625 C 11.015625 -10.570312 10.71875 -10.234375 10.125 -9.609375 C 9.53125 -8.992188 9.234375 -8.117188 9.234375 -6.984375 C 9.234375 -5.429688 9.941406 -4.203125 11.359375 -3.296875 C 12.785156 -2.390625 14.84375 -1.9375 17.53125 -1.9375 C 19.957031 -1.9375 21.851562 -2.46875 23.21875 -3.53125 C 24.59375 -4.59375 25.28125 -6.078125 25.28125 -7.984375 C 25.28125 -9.273438 24.890625 -10.332031 24.109375 -11.15625 C 23.335938 -11.988281 22.367188 -12.640625 21.203125 -13.109375 C 20.046875 -13.578125 18.429688 -14.117188 16.359375 -14.734375 C 13.828125 -15.460938 11.757812 -16.1875 10.15625 -16.90625 C 8.550781 -17.632812 7.179688 -18.722656 6.046875 -20.171875 C 4.910156 -21.617188 4.34375 -23.503906 4.34375 -25.828125 C 4.34375 -28.003906 5.015625 -29.863281 6.359375 -31.40625 C 7.703125 -32.957031 9.445312 -34.117188 11.59375 -34.890625 C 13.738281 -35.671875 16 -36.0625 18.375 -36.0625 C 21.425781 -36.0625 24.078125 -35.414062 26.328125 -34.125 C 28.578125 -32.832031 29.703125 -31.023438 29.703125 -28.703125 C 29.703125 -27.304688 29.273438 -26.113281 28.421875 -25.125 C 27.566406 -24.144531 26.441406 -23.65625 25.046875 -23.65625 C 24.222656 -23.65625 23.488281 -23.882812 22.84375 -24.34375 C 22.195312 -24.8125 21.875 -25.175781 21.875 -25.4375 C 21.875 -25.488281 22.078125 -25.695312 22.484375 -26.0625 C 22.898438 -26.425781 23.273438 -26.851562 23.609375 -27.34375 C 23.953125 -27.832031 24.125 -28.414062 24.125 -29.09375 C 24.019531 -30.488281 23.320312 -31.570312 22.03125 -32.34375 C 20.738281 -33.113281 19.210938 -33.5 17.453125 -33.5 C 15.484375 -33.5 13.757812 -33.046875 12.28125 -32.140625 C 10.8125 -31.242188 10.078125 -29.992188 10.078125 -28.390625 C 10.078125 -26.941406 10.382812 -25.789062 11 -24.9375 C 11.625 -24.082031 12.554688 -23.394531 13.796875 -22.875 C 15.046875 -22.363281 17.015625 -21.664062 19.703125 -20.78125 C 22.441406 -19.90625 24.585938 -19.09375 26.140625 -18.34375 C 27.691406 -17.59375 28.921875 -16.582031 29.828125 -15.3125 C 30.734375 -14.050781 31.1875 -12.382812 31.1875 -10.3125 C 31.1875 -8.195312 30.5625 -6.269531 29.3125 -4.53125 C 28.070312 -2.800781 26.363281 -1.457031 24.1875 -0.5 C 22.019531 0.457031 19.59375 0.9375 16.90625 0.9375 Z M 16.90625 0.9375 "/></g></g></g></svg>